<svg xmlns="http://www.w3.org/2000/svg" viewBox="0 0 260 260">
    <defs>
        <style>.cls-1{fill:none;}.cls-2{fill:#221563;fill-rule:evenodd;}</style>
    </defs>
    <title>connect expand button github (3)revised</title>
    <g id="Layer_2" data-name="Layer 2">
        <g id="connect_expand_button_github" data-name="connect expand button github">
            <circle class="cls-1" cx="130" cy="130" r="130"/>
            <path class="cls-2" d="M130,32.84A100,100,0,0,0,98.37,227.71c5,.88,6.88-2.12,6.88-4.75,0-2.37-.12-10.25-.12-18.62C80,209,73.5,198.21,71.5,192.59c-1.12-2.88-6-11.75-10.25-14.13-3.5-1.87-8.5-6.5-.12-6.62,7.87-.13,13.49,7.25,15.37,10.25,9,15.12,23.38,10.87,29.13,8.25.87-6.5,3.49-10.88,6.37-13.38-22.25-2.5-45.5-11.12-45.5-49.37a38.94,38.94,0,0,1,10.25-26.88c-1-2.5-4.5-12.75,1-26.5,0,0,8.37-2.62,27.5,10.25a94.41,94.41,0,0,1,50,0c19.13-13,27.5-10.25,27.5-10.25,5.5,13.75,2,24,1,26.5A38.68,38.68,0,0,1,194,127.59c0,38.37-23.37,46.87-45.62,49.37,3.62,3.13,6.75,9.13,6.75,18.5,0,13.38-.13,24.13-.13,27.5,0,2.63,1.87,5.75,6.88,4.75A100.05,100.05,0,0,0,130,32.84Z"/>
        </g>
    </g>
</svg>