<svg xmlns="http://www.w3.org/2000/svg" viewBox="0 0 200 195.07">
    <defs>
        <style>.cls-1{fill:#fff;fill-rule:evenodd;}</style>
    </defs>
    <title>connect expand button github (2)</title>
    <g id="Layer_2" data-name="Layer 2">
        <g id="connect_expand_button_github" data-name="connect expand button github">
            <path class="cls-1" d="M100,0A100,100,0,0,0,68.37,194.88c5,.87,6.88-2.13,6.88-4.75,0-2.38-.12-10.25-.12-18.63C50,176.13,43.5,165.37,41.5,159.75c-1.12-2.87-6-11.75-10.25-14.13-3.5-1.87-8.5-6.49-.12-6.62,7.87-.13,13.49,7.25,15.37,10.25,9,15.12,23.38,10.88,29.13,8.25.87-6.5,3.49-10.88,6.37-13.38C59.75,141.62,36.5,133,36.5,94.75A39,39,0,0,1,46.75,67.87c-1-2.49-4.5-12.75,1-26.5,0,0,8.37-2.62,27.5,10.26a94.15,94.15,0,0,1,50,0c19.13-13,27.5-10.26,27.5-10.26,5.5,13.75,2,24,1,26.5A38.68,38.68,0,0,1,164,94.75c0,38.37-23.37,46.87-45.62,49.37,3.62,3.13,6.75,9.13,6.75,18.51,0,13.37-.13,24.12-.13,27.5,0,2.62,1.87,5.75,6.88,4.75A100.06,100.06,0,0,0,100,0Z"/>
        </g>
    </g>
</svg>