<svg xmlns="http://www.w3.org/2000/svg" viewBox="0 0 163.5 250"><defs><style>.cls-1,.cls-2{fill:none;stroke:#fff;stroke-miterlimit:10;}.cls-1{stroke-width:5px;}.cls-2{stroke-width:8px;}.cls-3{fill:#fff;}</style></defs><title>iconslightbulb baseresume_icon</title><g id="Layer_2" data-name="Layer 2"><g id="lightbulb_base" data-name="lightbulb base"><path class="cls-1" d="M81.76,2.5C37.6,2.49-3.63,45,3.26,81v0c0,.06,0,.1,0,.1s0,0,0,.09.88,2.69,1.91,5.88,9.22,19.7,14,30.59,9.14,21.25,9.79,23,5.75,12.6,9.14,20.34,6.18,24.43,6.18,37.08V224.5a23.07,23.07,0,0,0,23,23h27a23.07,23.07,0,0,0,23-23V202.35c0-12.65.17-23.83.38-24.84a127.12,127.12,0,0,1,6.68-16.29c3.43-6.9,7.15-14.16,8.27-16.15s7-16.43,11.73-27.26,9.93-22.08,11.6-25,4.28-11.52,4.3-11.56,0-.09,0-.09,0,0,0-.1v0C167.1,44.89,125.87,2.51,81.76,2.5Z"/><path class="cls-1" d="M44.76,193a229.93,229.93,0,0,1,72,0"/><path class="cls-1" d="M45.26,225a117.24,117.24,0,0,1,72,0"/><path class="cls-1" d="M45.26,208a154.73,154.73,0,0,1,72,0"/><path class="cls-2" d="M41.76,169a252.3,252.3,0,0,1,79,0"/><ellipse class="cls-3" cx="81.26" cy="241.5" rx="25" ry="6"/><path class="cls-1" d="M45.26,181a229.93,229.93,0,0,1,72,0"/><path class="cls-3" d="M129.85,105.8c-27.88-.61-31,3.11-16.14,27.82-23.71-20.15-29.35-19.3-41.25,11,.24-32.52-4.68-35.4-34.19-25.55,23-17.37,21.49-22-4.61-31.83,27.88.61,31.05-3.11,16.14-27.82,23.72,20.15,29.35,19.3,41.25-11-.24,32.52,4.68,35.4,34.19,25.55C102.2,91.34,103.76,96,129.85,105.8Z"/></g></g></svg>