<svg xmlns="http://www.w3.org/2000/svg" viewBox="0 0 1920 1455">
    <defs>
        <style>.cls-1{fill:#0d0830;stroke-width:18px;}.cls-1,.cls-3{stroke:#03030c;}.cls-1,.cls-10,.cls-12,.cls-13,.cls-14,.cls-16,.cls-17,.cls-20,.cls-21,.cls-23,.cls-26,.cls-29,.cls-3,.cls-5,.cls-6,.cls-7{stroke-miterlimit:10;}.cls-2{fill:#450092;}.cls-10,.cls-16,.cls-17,.cls-19,.cls-23,.cls-26,.cls-29,.cls-3,.cls-5,.cls-7{fill:none;}.cls-3{stroke-width:10px;}.cls-4{fill:#734652;}.cls-5,.cls-6,.cls-7{stroke:gray;}.cls-6{fill:#666;}.cls-16,.cls-20,.cls-21,.cls-23,.cls-26,.cls-29,.cls-7{stroke-width:0.5px;}.cls-8{fill:#5a758c;}.cls-9{fill:#fff;}.cls-10,.cls-12,.cls-13{stroke:#fff;}.cls-11{fill:#3f4d59;}.cls-12{fill:#3c4973;}.cls-12,.cls-13{stroke-width:3px;}.cls-13{fill:#6588a6;}.cls-14,.cls-24{fill:#566273;}.cls-14{stroke:#f2f2f2;}.cls-15{fill:#999;}.cls-16,.cls-17{stroke:#999;}.cls-17{stroke-width:4px;}.cls-18{fill:#526d40;}.cls-20{fill:#f15a24;}.cls-20,.cls-21{stroke:#f7931e;}.cls-21{fill:#fbb03b;}.cls-22,.cls-27{fill:#4d4d4d;}.cls-23{stroke:#000;}.cls-25{fill:#ccc;}.cls-26{stroke:#666;}.cls-27{isolation:isolate;font-size:21.53px;font-family:ARDESTINE, AR DESTINE;}.cls-28{fill:#bf871f;}.cls-29{stroke:#333;}
        #rocket{
        transform-origin: 1400.5px 1300.5px;
        animation: rocket-launch 10s 1s linear infinite;
        }
        #booster-left{
        transform-origin: 1400.5px 1300.5px;
        animation: booster-drop 10s 1s linear infinite;
        }
        #booster-right{
                transform-origin: 1400.5px 1300.5px;
        animation: booster-drop-right 10s 1s linear infinite;
        }
        #booster-thrust{
                transform-origin: 1400.5px 1300.5px;
        animation: booster-shutoff 10s 1s linear infinite;
        }
        @keyframes rocket-launch {
        from {transform:rotate(0deg);}
        to {transform:rotate(150deg);}
        }
        @keyframes booster-drop{
        25% {transform:rotate(0deg);transform-origin: 0.5px 2200.5px;}
        100%{transform:rotate(100deg);}
        }
        @keyframes booster-drop-right{
        25% {transform:rotate(0deg);transform-origin: 0.5px 2500.5px;}
        100%{transform:rotate(120deg);}
        }
        @keyframes booster-shutoff{
        25% {opacity: 0;}
        100%{opacity: 0;}
        }
        </style>
    </defs>
    <title>rocket_educationV3Artboard 1</title>
    <g id="window">
        <g id="window-2" data-name="window">
            <path class="cls-1" d="M1769,558H1352V59h417Z"/>
        </g>
        <g id="window-purple">
            <g id="window_shadow" data-name="window shadow">
                <polyline class="cls-2" points="1361 548 1758 548 1758 205"/>
            </g>
        </g>
        <rect class="cls-3" x="1350" y="313" width="209" height="248"/>
        <rect class="cls-3" x="1559" y="65" width="209" height="248"/>
    </g>
    <g id="smoke_stack">
        <g id="main-cone">
            <path class="cls-4" d="M1055.29,1401.5a132.53,132.53,0,0,0-116.58,0l29.58-604a65.28,65.28,0,0,1,57.42,0Z"/>
            <path class="cls-5" d="M1055.29,1401.5a132.53,132.53,0,0,0-116.58,0l29.58-604a65.28,65.28,0,0,1,57.42,0Z"/>
        </g>
        <ellipse class="cls-6" cx="997" cy="797" rx="29.5" ry="6.5"/>
        <path class="cls-7" d="M1055.47,1386.54a468.87,468.87,0,0,1-116.94,0Q954,1095,969.47,803.52a220.54,220.54,0,0,0,55.06,0Q1040,1095,1055.47,1386.54Z"/>
        <path class="cls-7" d="M1029.69,900.69a262,262,0,0,1-65.38,0"/>
        <path class="cls-7" d="M1034.85,997.86a303.43,303.43,0,0,1-75.7,0"/>
        <path class="cls-7" d="M1040,1095a344.71,344.71,0,0,1-86,0"/>
        <path class="cls-7" d="M1045.16,1192.2a386.15,386.15,0,0,1-96.32,0"/>
        <path class="cls-7" d="M1050.31,1289.37a427.43,427.43,0,0,1-106.62,0"/>
        <path class="cls-7" d="M958,1388.57l20.64-584.09"/>
        <path class="cls-7" d="M977.48,1389.79q5.16-292.36,10.33-584.74"/>
        <path class="cls-7" d="M997,1390.2v-585"/>
        <path class="cls-7" d="M1016.52,1389.79q-5.16-292.36-10.33-584.74"/>
        <path class="cls-7" d="M1036,1388.57l-20.64-584.09"/>
    </g>
    <g id="e5">
        <g id="sky-bridge">
            <rect class="cls-8" x="993.5" y="1249.5" width="213" height="59"/>
            <path class="cls-9" d="M1206,1250v58H994v-58h212m1-1H993v60h214v-60Z"/>
            <rect class="cls-9" x="993" y="1249" width="215" height="8"/>
            <rect class="cls-10" x="995" y="1253" width="212" height="52"/>
            <line class="cls-10" x1="995" y1="1287.67" x2="1207" y2="1287.67"/>
            <line class="cls-10" x1="1171.67" y1="1253" x2="1171.67" y2="1305"/>
            <line class="cls-10" x1="1101" y1="1253" x2="1101" y2="1305"/>
            <line class="cls-10" x1="1030.33" y1="1253" x2="1030.33" y2="1305"/>
            <rect class="cls-11" x="993" y="1301" width="215" height="8"/>
        </g>
        <g id="top">
            <rect class="cls-12" x="416.5" y="1021.5" width="510" height="38" rx="12"/>
        </g>
        <g id="main">
            <rect class="cls-13" x="338.5" y="1040.88" width="660" height="346.62"/>
            <rect class="cls-10" x="338.5" y="1040.5" width="660" height="347"/>
            <line class="cls-10" x1="338.5" y1="1329.67" x2="998.5" y2="1329.67"/>
            <line class="cls-10" x1="338.5" y1="1271.83" x2="998.5" y2="1271.83"/>
            <line class="cls-10" x1="338.5" y1="1214" x2="998.5" y2="1214"/>
            <line class="cls-10" x1="338.5" y1="1156.17" x2="998.5" y2="1156.17"/>
            <line class="cls-10" x1="998.5" y1="1098.33" x2="338.5" y2="1098.33"/>
            <line class="cls-10" x1="888.5" y1="1040.5" x2="888.5" y2="1387.5"/>
            <line class="cls-10" x1="778.5" y1="1040.5" x2="778.5" y2="1387.5"/>
            <line class="cls-10" x1="668.5" y1="1040.5" x2="668.5" y2="1387.5"/>
            <line class="cls-10" x1="558.5" y1="1040.5" x2="558.5" y2="1387.5"/>
            <line class="cls-10" x1="448.5" y1="1040.5" x2="448.5" y2="1387.5"/>
            <polygon class="cls-14" points="340 1098.5 448 1098.5 393.33 1068 340 1098.5"/>
            <polygon class="cls-14" points="448 1098.5 556 1098.5 501.33 1068 448 1098.5"/>
            <polygon class="cls-14" points="559 1098.5 669 1098.5 613.32 1068 559 1098.5"/>
            <polygon class="cls-14" points="669 1098.5 779 1098.5 723.32 1068 669 1098.5"/>
            <polygon class="cls-14" points="779 1098.5 889 1098.5 833.32 1068 779 1098.5"/>
            <polygon class="cls-14" points="889 1098.5 998 1098.5 942.83 1068 889 1098.5"/>
            <polygon class="cls-14" points="339 1156.5 448 1156.5 392.83 1126 339 1156.5"/>
            <polygon class="cls-14" points="450 1156.5 559 1156.5 503.83 1126 450 1156.5"/>
            <polygon class="cls-14" points="559 1156.5 668 1156.5 612.83 1126 559 1156.5"/>
            <polygon class="cls-14" points="669 1156.5 778 1156.5 722.83 1126 669 1156.5"/>
            <polygon class="cls-14" points="780 1156.5 889 1156.5 833.83 1126 780 1156.5"/>
            <polygon class="cls-14" points="890 1156.5 998 1156.5 943.33 1126 890 1156.5"/>
            <polygon class="cls-14" points="339 1213.5 448 1213.5 392.83 1183 339 1213.5"/>
            <polygon class="cls-14" points="450 1213.5 559 1213.5 503.83 1183 450 1213.5"/>
            <polygon class="cls-14" points="559 1213.5 668 1213.5 612.83 1183 559 1213.5"/>
            <polygon class="cls-14" points="669 1213.5 778 1213.5 722.83 1183 669 1213.5"/>
            <polygon class="cls-14" points="780 1213.5 889 1213.5 833.83 1183 780 1213.5"/>
            <polygon class="cls-14" points="889 1213.5 998 1213.5 942.83 1183 889 1213.5"/>
            <polygon class="cls-14" points="339 1270.5 448 1270.5 392.83 1240 339 1270.5"/>
            <polygon class="cls-14" points="450 1271.5 559 1271.5 503.83 1241 450 1271.5"/>
            <polygon class="cls-14" points="560 1271.5 669 1271.5 613.83 1241 560 1271.5"/>
            <polygon class="cls-14" points="669 1271.5 778 1271.5 722.83 1241 669 1271.5"/>
            <polygon class="cls-14" points="780 1271.5 889 1271.5 833.83 1241 780 1271.5"/>
            <polygon class="cls-14" points="889 1271.5 998 1271.5 942.83 1241 889 1271.5"/>
            <polygon class="cls-14" points="339 1329.5 448 1329.5 392.83 1299 339 1329.5"/>
            <polygon class="cls-14" points="448 1329.5 557 1329.5 501.83 1299 448 1329.5"/>
            <polygon class="cls-14" points="560 1329.5 669 1329.5 613.83 1299 560 1329.5"/>
            <polygon class="cls-14" points="668 1329.5 777 1329.5 721.83 1299 668 1329.5"/>
            <polygon class="cls-14" points="778 1329.5 887 1329.5 831.83 1299 778 1329.5"/>
            <polygon class="cls-14" points="889 1329.5 998 1329.5 942.83 1299 889 1329.5"/>
            <polygon class="cls-14" points="339 1385.5 448 1385.5 392.83 1355 339 1385.5"/>
            <polygon class="cls-14" points="448 1385.5 557 1385.5 501.83 1355 448 1385.5"/>
            <polygon class="cls-14" points="559 1385.5 668 1385.5 612.83 1355 559 1385.5"/>
            <polygon class="cls-14" points="669 1385.5 778 1385.5 722.83 1355 669 1385.5"/>
            <polygon class="cls-14" points="780 1385.5 889 1385.5 833.83 1355 780 1385.5"/>
            <polygon class="cls-14" points="889 1385.5 998 1385.5 942.83 1355 889 1385.5"/>
        </g>
    </g>
    <g id="qnc">
        <g id="cones">
            <path class="cls-11" d="M1465.82,904.94c2.78,7.19-1.24,13.06-8.94,13.06h-70.75c-7.71,0-11.73-5.87-9-13.06l9.64-24.88c2.78-7.19,11-15,18.35-17.46h32.66c7.31,2.42,15.57,10.27,18.35,17.46Z"/>
            <rect class="cls-11" x="1428" y="853" width="107" height="65" rx="13"/>
        </g>
        <g id="main-body">
            <rect class="cls-8" x="1193" y="899" width="486" height="486"/>
            <path class="cls-15" d="M1676,902v480H1196V902h480m6-6H1190v492h492V896Z"/>
        </g>
        <g id="window-grid">
            <rect class="cls-16" x="1190" y="902" width="492" height="485"/>
            <line class="cls-16" x1="1682" y1="982.83" x2="1190" y2="982.83"/>
            <line class="cls-16" x1="1682" y1="1063.67" x2="1190" y2="1063.67"/>
            <line class="cls-16" x1="1682" y1="1144.5" x2="1190" y2="1144.5"/>
            <line class="cls-16" x1="1682" y1="1225.33" x2="1190" y2="1225.33"/>
            <line class="cls-16" x1="1682" y1="1306.17" x2="1190" y2="1306.17"/>
            <line class="cls-16" x1="1272" y1="1387" x2="1272" y2="902"/>
            <line class="cls-16" x1="1354" y1="1387" x2="1354" y2="902"/>
            <line class="cls-16" x1="1436" y1="1387" x2="1436" y2="902"/>
            <line class="cls-16" x1="1518" y1="1387" x2="1518" y2="902"/>
            <line class="cls-16" x1="1600" y1="1387" x2="1600" y2="902"/>
        </g>
        <g id="octogons">
            <path class="cls-15" d="M1268.51,905l25.28,77.5-25.28,77.5h-47.38l-25.29-77.5,25.29-77.5h47.38m2.9-4h-53.18l-26.59,81.5,26.59,81.5h53.18L1298,982.5,1271.41,901Z"/>
            <path class="cls-15" d="M1268.51,1064l25.28,77.5-25.28,77.5h-47.38l-25.29-77.5,25.29-77.5h47.38m2.9-4h-53.18l-26.59,81.5,26.59,81.5h53.18l26.59-81.5-26.59-81.5Z"/>
            <path class="cls-15" d="M1268.51,1228l25.28,77.5-25.28,77.5h-47.38l-25.29-77.5,25.29-77.5h47.38m2.9-4h-53.18l-26.59,81.5,26.59,81.5h53.18l26.59-81.5-26.59-81.5Z"/>
            <path class="cls-15" d="M1344.51,987l25.28,77.5-25.28,77.5h-47.38l-25.29-77.5,25.29-77.5h47.38m2.9-4h-53.18l-26.59,81.5,26.59,81.5h53.18l26.59-81.5L1347.41,983Z"/>
            <path class="cls-15" d="M1344.51,1148l25.28,77.5-25.28,77.5h-47.38l-25.29-77.5,25.29-77.5h47.38m2.9-4h-53.18l-26.59,81.5,26.59,81.5h53.18l26.59-81.5-26.59-81.5Z"/>
            <path class="cls-15" d="M1424.51,905l25.28,77.5-25.28,77.5h-47.38l-25.29-77.5,25.29-77.5h47.38m2.9-4h-53.18l-26.59,81.5,26.59,81.5h53.18L1454,982.5,1427.41,901Z"/>
            <path class="cls-15" d="M1424.51,1067l25.28,77.5-25.28,77.5h-47.38l-25.29-77.5,25.29-77.5h47.38m2.9-4h-53.18l-26.59,81.5,26.59,81.5h53.18l26.59-81.5-26.59-81.5Z"/>
            <path class="cls-15" d="M1424.51,1228l25.28,77.5-25.28,77.5h-47.38l-25.29-77.5,25.29-77.5h47.38m2.9-4h-53.18l-26.59,81.5,26.59,81.5h53.18l26.59-81.5-26.59-81.5Z"/>
            <path class="cls-15" d="M1501.51,987l25.28,77.5-25.28,77.5h-47.38l-25.29-77.5,25.29-77.5h47.38m2.9-4h-53.18l-26.59,81.5,26.59,81.5h53.18l26.59-81.5L1504.41,983Z"/>
            <path class="cls-15" d="M1578.51,905l25.28,77.5-25.28,77.5h-47.38l-25.29-77.5,25.29-77.5h47.38m2.9-4h-53.18l-26.59,81.5,26.59,81.5h53.18L1608,982.5,1581.41,901Z"/>
            <path class="cls-15" d="M1653.47,987l24.34,77.5-24.34,77.5h-45.31l-24.33-77.5,24.33-77.5h45.31m2.94-4h-51.18l-25.59,81.5,25.59,81.5h51.18l25.59-81.5L1656.41,983Z"/>
            <path class="cls-15" d="M1501.51,1149l25.28,77.5-25.28,77.5h-47.38l-25.29-77.5,25.29-77.5h47.38m2.9-4h-53.18l-26.59,81.5,26.59,81.5h53.18l26.59-81.5-26.59-81.5Z"/>
            <path class="cls-15" d="M1580.51,1228l25.28,77.5-25.28,77.5h-47.38l-25.29-77.5,25.29-77.5h47.38m2.9-4h-53.18l-26.59,81.5,26.59,81.5h53.18l26.59-81.5-26.59-81.5Z"/>
            <path class="cls-15" d="M1654.2,1149l23.62,77.5L1654.2,1304h-43.76l-23.62-77.5,23.62-77.5h43.76m3-4h-49.68l-24.84,81.5,24.84,81.5h49.68l24.84-81.5-24.84-81.5Z"/>
            <line class="cls-17" x1="1680" y1="914" x2="1654" y2="987"/>
            <line class="cls-17" x1="1680" y1="1378" x2="1656" y2="1306"/>
        </g>
    </g>
    <g id="grass">
        <path class="cls-18" d="M1707.5,1386.58c-1.5-5.14-14.45-11.73-49-5-20.78,4-76.23,6.5-116,5-2.47-.09-8.65,1.62-16.78.8-10.61-1.07-16.53-4.75-23.72-7.38-8.78-3.21-18.19-3.14-37-3-16.09.12-20.38,1.64-44,3-11.41.66-20.79.9-27,1a525.38,525.38,0,0,0-55-2c-46.94.78-55.48,7.33-93.5,5.07-12.72-.76-20.72-1.35-34,0-23.5,2.38-27.73,7.24-51,8.8-7.66.51-13.44.34-25,0-16.31-.49-23.53-1.6-49-3.78-22-1.88-33.06-2.82-37-2.51-2.75.22-6.84,1.72-13,2-9,.39-14.39-1.44-20.53-2.57-9.63-1.78-9.71.26-35,1-11.19.33-19.34.17-28,0-16.54-.32-25-.52-33-2-14.2-2.63-13.72-5.21-22-5-11.49.29-13.7,5.28-27.19,6-3.47.18-4.42-.34-19.07-1.75-5.9-.57-13.43-1.35-25.24-2.7-44.57-5.1-56.9-7.63-78-2.51-7.34,1.78-9.38,2.94-27,7.54-36,9.41-66.83-1.08-82-7.54-6-2.56-19.67-7.5-75,1.25-42.25,6.69-45.46,11.33-62,7.55-15.33-3.51-19.94-9.18-35-8.8-1.81,0-1.84.13-9.92,1.29-10.15,1.44-19.62,2.52-38.58,4.67-24.49,2.78-36.74,4.17-39.5,4.09-20.83-.55-40.43-5.82-48-8.8-14.12-5.55-24.35-12.59-34-6.28-.35.23-8.15,5.48-8,12.57s8.06,12,11,13.83c30.7,19.19,199.94,7.11,268,7.54,31.86.2,67,1.26,67,1.26,42.54,1.28,49.2,2.4,78,2.51,8.33,0,11.33,0,67-1.25l58-1.26c92-.22,103.08,21.6,163,11.31,21.68-3.72,31.56-8.52,56-8.8,27.58-.31,32.87,5.61,65,5,20.93-.37,40.26-3.27,52-5,24.15-3.62,29.94-6.28,45-6.28,9.07,0,18.44,1,44,7.54,62.12,16,110.08,9.5,126,2.51,17.57-7.7,42.46,1.26,89,3.78,94.56,5.1,170.86,12.94,214.5-16.27C1697,1400.31,1709.14,1392.2,1707.5,1386.58Z"/>
    </g>
    <g id="uw">
        <polygon class="cls-9" points="708.71 704.25 720.31 704.25 730.49 737.54 741.53 704.11 750.79 704.11 761.83 737.54 772.01 704.25 783.32 704.25 766.52 753.78 757.12 753.78 746.03 721.61 734.92 753.78 725.5 753.78 708.71 704.25"/>
        <path class="cls-9" d="M811.84,733.18l-6.53-15.94-6.53,15.94Zm-11.38-28.94h10l21.06,49.54H820.2l-4.5-11H794.91l-4.5,11h-11Z"/>
        <polygon class="cls-9" points="843.3 714.57 828.34 714.57 828.34 704.6 869.1 704.6 869.1 714.57 854.14 714.57 854.14 753.78 843.3 753.78 843.3 714.57"/>
        <polygon class="cls-9" points="877.32 704.6 914.42 704.6 914.42 714.21 888.07 714.21 888.07 724.19 911.27 724.19 911.27 733.83 888.07 733.83 888.07 744.15 914.77 744.15 914.77 753.78 877.32 753.78 877.32 704.6"/>
        <path class="cls-9" d="M948.19,728.49c5.28,0,8.3-2.82,8.3-7v-.14c0-4.64-3.25-7-8.51-7H937.23v14.13ZM926.41,704.6H948.9c6.25,0,11.09,1.75,14.33,5,2.74,2.73,4.21,6.59,4.21,11.23V721c0,7.95-4.28,12.94-10.53,15.25l12,17.57H956.26L945.73,738h-8.5v15.74H926.41Z"/>
        <polygon class="cls-9" points="979.38 704.6 990.2 704.6 990.2 743.94 1013.23 743.94 1013.23 753.78 979.38 753.78 979.38 704.6"/>
        <path class="cls-9" d="M1055.85,729.33v-.15c0-8.42-6.17-15.46-14.88-15.46s-14.76,6.89-14.76,15.32v.14c0,8.43,6.18,15.47,14.9,15.47s14.74-6.88,14.74-15.32m-41,0v-.15c0-14,11-25.43,26.22-25.43s26.07,11.31,26.07,25.29v.14c0,14-11,25.44-26.21,25.44s-26.08-11.31-26.08-25.29"/>
        <path class="cls-9" d="M1111.17,729.33v-.15c0-8.42-6.18-15.46-14.9-15.46s-14.75,6.89-14.75,15.32v.14c0,8.43,6.19,15.47,14.89,15.47s14.76-6.88,14.76-15.32m-41,0v-.15c0-14,11-25.43,26.2-25.43s26.07,11.31,26.07,25.29v.14c0,14-11,25.44-26.21,25.44s-26.06-11.31-26.06-25.29"/>
        <path class="cls-9" d="M736.16,679.71v-13h5v12.82c0,3.69,1.84,5.6,4.88,5.6s4.89-1.85,4.89-5.44v-13h5v12.79c0,6.86-3.85,10.23-9.94,10.23S736.16,686.38,736.16,679.71Z"/>
        <path class="cls-9" d="M769.17,666.76h4.59l10.62,14v-14h4.92v22.66h-4.24l-11-14.4v14.4h-4.92Z"/>
        <path class="cls-9" d="M803.48,666.76h5v22.66h-5Z"/>
        <path class="cls-9" d="M820.7,666.76h5.5l5.93,16,5.92-16h5.37l-9.15,22.82h-4.41Z"/>
        <path class="cls-9" d="M855.43,666.76h17.1v4.44H860.39v4.59h10.68v4.44H860.39V685h12.3v4.43H855.43Z"/>
        <path class="cls-9" d="M885.64,666.76H896a9,9,0,0,1,6.6,2.3,7.11,7.11,0,0,1,1.94,5.18v.06a7,7,0,0,1-4.85,7l5.53,8.09H899.4l-4.86-7.25h-3.91v7.25h-5Zm10,11c2.42,0,3.81-1.3,3.81-3.21v-.06c0-2.14-1.49-3.24-3.91-3.24h-5v6.51Z"/>
        <path class="cls-9" d="M916,686.12l3-3.53a10.42,10.42,0,0,0,6.77,2.75c2,0,3.26-.81,3.26-2.13v-.07c0-1.26-.77-1.91-4.56-2.88-4.56-1.17-7.51-2.43-7.51-6.93v-.06c0-4.11,3.3-6.83,7.93-6.83a13.11,13.11,0,0,1,8.42,2.88l-2.59,3.75a10.64,10.64,0,0,0-5.89-2.23c-1.91,0-2.92.87-2.92,2v.07c0,1.49,1,2,4.89,3,4.6,1.19,7.19,2.85,7.19,6.79v.07c0,4.5-3.44,7-8.32,7A14.42,14.42,0,0,1,916,686.12Z"/>
        <path class="cls-9" d="M947,666.76h5v22.66h-5Z"/>
        <path class="cls-9" d="M971.46,671.36h-6.9v-4.6h18.77v4.6h-6.89v18.06h-5Z"/>
        <path class="cls-9" d="M1002.05,680.48l-8.71-13.72h5.83l5.4,9.1,5.5-9.1h5.67L1007,680.39v9h-5Z"/>
        <path class="cls-9" d="M1044.07,678.16v-.07a12,12,0,0,1,24.08-.06v.06a12,12,0,0,1-24.08.07Zm18.87,0v-.07a6.89,6.89,0,0,0-6.86-7.12,6.77,6.77,0,0,0-6.8,7.06v.06a6.89,6.89,0,0,0,6.86,7.12A6.77,6.77,0,0,0,1062.94,678.16Z"/>
        <path class="cls-9" d="M1078.86,666.76h17.25v4.53h-12.27v4.83h10.82v4.53h-10.82v8.77h-5Z"/>
        <path class="cls-9" d="M596.21,673.54c.06.05,0,0-.06-.07S596.14,673.48,596.21,673.54Z"/>
        <path class="cls-9" d="M659.84,711c.06.1,0,0,0,0Z"/>
        <path class="cls-9" d="M646.38,775.74l-.1.08,0,0Z"/>
        <path class="cls-9" d="M669.15,674.65h0C669.1,674.71,669.26,674.59,669.15,674.65Z"/>
        <path class="cls-9" d="M612.1,675.05c.54-1.33,1.82-1.48,2.88,0,0,0-.05.1-.17.16C613.87,675.66,611.73,675.94,612.1,675.05Zm79-8.34,0,1q-.09,3.48-.15,7c-.63,30-1.23,58.42-19,85.68-7.32,11.23-18.55,20.59-32.49,27.07l-.42.19-.41-.19c-14-6.46-25.21-15.83-32.55-27.07-17.76-27.27-18.35-55.66-19-85.71q-.07-3.46-.16-6.93l0-1Zm-16.62,11.9c0-.09-.54-1.73-.75-1.07-1.13,3.38-3.88,4.48-6.6,5.86-1.88,1-6.92,5.22-5.17,6.84a8.62,8.62,0,0,1,3.75,1.73c.22.21,1.1-2.06,4.84-2a6.41,6.41,0,0,1,3.09,1C673.08,686.83,676,682.74,674.51,678.61ZM662,676.18c1.34.06,3.29-1.45,4.1.1a2.06,2.06,0,0,1,.3.8c0,.06,0,.12,0,.17a3.62,3.62,0,0,1,0,1.09,2.09,2.09,0,0,1-.56,1.2,3.07,3.07,0,0,1-.35.28l-.16.13a2.16,2.16,0,0,1-.48.24,1.19,1.19,0,0,1-.38.11l-.24,0-.48,0c-.33,0-.37-.14-.59.05a.85.85,0,0,0-.22.58,2.36,2.36,0,0,1,.6.11,5.4,5.4,0,0,0,.9.23,6.34,6.34,0,0,0,1.15.06l1.14,0a3.52,3.52,0,0,0,.56,0,3,3,0,0,0,.69-.11,3.21,3.21,0,0,0,.69-.3,9.08,9.08,0,0,0,.81-.57c.46-.31,1.13-.3,1.53-.64l-.18.14c1.18-.56,1.25-2.14,1.7-3.26.31-.76,1.2-.72,1.52-1.57.09-.25.09-1.46-.09-1.39a4.89,4.89,0,0,1-2.73.62c-2.69-.75-3.37-2.12-5.94-.22-.77.57-2.24,0-3.2,1.19A2.3,2.3,0,0,0,662,676.18Zm-3.57,1a3.76,3.76,0,0,0,5.78.94.94.94,0,0,1,.94.06c-1.83-2.16-3.47-.89-5.13-.76C659.56,677.42,658.92,677.07,658.4,677.15Zm-8.12.78c.14,0,.57,0,.64.14s.13.41.27.59.34.24.61.35a2.35,2.35,0,0,0,1.23.22l.1,0c.2.13,0,.5-.25.57s-.66,0-.9,0c-1.08.4-1.08,3.05-.93,2.75s1-.12,1.47,0c.83.17,1.46-1.52,2-1.47,1.29.11,2.5,1.72,3,2.78.09.2-.54.2-.59.86,1.77-.17,3.26,1,4.53,2a11,11,0,0,1,2-2.45c-2.66-2.58-7.93-3.38-7.12-8.09.11-.6-.57-1.13-.88-1.43s-1.12-.35-1.6-.46c.5,1-.41,1.14-.28,2.8,0,0-.15,0-.2,0a5.73,5.73,0,0,1-.89-.52,1.14,1.14,0,0,0-.83-.08,1.22,1.22,0,0,0-.51.22,2.25,2.25,0,0,0-.55.67s-.07.1-.11.14A.78.78,0,0,0,650.28,677.93Zm-3.61,12.76c1.07-.55,1.22.93,1.9.53s1.09-.76,1.69-.49a.57.57,0,0,1,0,.94c-3.06,1.09-.59,3.1-1.08,3.52.42-.37,1.69-.36,2.9-2.17.25-.38,1.72-.41,2.27-.25.84.25-.06,1.53.32,1.46.91-.15,2.8.9,3.62,1.66,1.81,1.73,3.21,1.49,5.31,2.63-1.44-1.32-1.45-3.62-1-5.43a21.88,21.88,0,0,1-5.51-1c-3.48-.86-3.27-4.44-3.9-5.89l-.21-.25c-.16-.6-.92-.87-1.52-1l-.18,0a2.59,2.59,0,0,0-.48,0,.26.26,0,0,1,.09.41s0,.06-.05,0-.06.06-.07.1-.09.07-.12.12a.1.1,0,0,1,0,.07,1.39,1.39,0,0,0-.41,1.55.64.64,0,0,0,.14.3l.14.17c.16.15.24.5.47.65l.39.68c.2.17-.27.35-.39.2C649.26,687.27,646.46,687.54,646.67,690.69Zm22.07,13.74c.41-1.07-1.76-3.18-3.39-2.59-2.08.74-1.21,3.37-1.6,5.2a2,2,0,0,1-2.52,1.4c-1.72-.59-2.41-2.2-2.83-4-.29-1.2-2.62-1.34-3.12-.36-1.43,2.78.85-.33.7,1.78,0,.36-1.67.09-2,1.35-.25.85.56,1.42,1.58,1.72.18,0-.2-.42.05-.53s.93.33.85.38c-1,.6-1.24,2,.52,2.59,0,0-.13-.5,0-.59a2.47,2.47,0,0,1,2.8,0h0a.85.85,0,0,0,.12.17,2.08,2.08,0,0,0,.18.48c2-.82,4-1.76,6.19-.88C665.24,706.17,668.48,705.09,668.74,704.43Zm-49.43-11.66c-2.27,2-6.46.34-8.4,2.25s2.88,3,4.72,3.89a1.94,1.94,0,0,1,1.25,1.87c-2.89-1.7-6.36.23-6.19,3.31.13,2.31,2.95,3.74,5.3,3.94,1,.08,1.57,1.17.38,1.91-2.09,1.31-4.42,2.76-6.67.4a1.5,1.5,0,0,0-2,.57,2.91,2.91,0,0,0-.12,1.24c.13-.22.27-.52.46-.5s.49.27.46.43c-.19,1.16-1.71.41-2.18,1.31l-.05.06-.1.2c-.31.61-.73,1,0,1.47,0-.11.38.49.37.59a.6.6,0,0,1,.62-.54l.33,0,.33.14c.37.09.1.39-.05.49a2.39,2.39,0,0,0-.7.75.93.93,0,0,0-.19.74,2.53,2.53,0,0,0,.18.57c0,.12.16.18.24.28a1.3,1.3,0,0,1,.17.21c-.08-.28.33-.57.42-.52,1.89,1.1,2-1.12,3.12-1.87a.89.89,0,0,1,1.29,1c1.12-.6,1.45-2.12,2.33-3.06a21.54,21.54,0,0,1,7.23-4.64c-.93-1-2.31-1.82-3-3-.35-.56-.76-1.66,0-1.46,3.17.82,5-1.11,5.3-3.6,4.69.6,5.91-3.83,6.55-7.18.3-1.63,1.19-1.77.22-4.54-.4-1.16,2.08-1.54,1.66-3.54a1.84,1.84,0,0,0-1.21-1.18c.39,1.08-1.42,1.36-1.62,1.8a6.47,6.47,0,0,0-.81,2c-1.53-2.11-.29-4.66,1.15-6.64,2.09-2.88,6.43-1.37,8.26.49a4.19,4.19,0,0,0-1.29-2.69c1.72-.22,3.57.82,5.9-.41,1.35-.72,2.71-1.33,3.34-2.92-2.86.39-6.74-1.81-9.32-2.26-4.81-.84-8,2.44-9.76,6.36s-.61,6.82,1.25,9.74c.46.74-1.65.25-2.49.68a2.1,2.1,0,0,0-1,2.32c1-1.11,3.74-.43,4,1.46.33,2.54-2.23,6.24-4.71,5.13C621.69,698.71,620.19,695.91,619.31,692.77Zm.11-16.69a6.8,6.8,0,0,1-3,6.31c-3,1.8-6.83,2.92-7.87,6.7-.38,1.37-.88,4.47-.21,5.83.23-.71.66-1.37,1.47-1.4,2.94-.11,3.8-.69,5.78-2.11.7-.51,2.57,1.55,2.52,1.25s-.13-2,.25-1.7a5,5,0,0,0,2.82.91c-2.4-2.72.56-5.8.6-8.66A11.58,11.58,0,0,0,619.42,676.08Zm-11.51.24c1.4-.55,3.26-1.29,4.16.29.55,1,.34,1.81-.07,3-.33.94-2,1.21-3.23,1a.89.89,0,0,1,.26,1c2.8-.71,6.9.34,8.78-2.83.64-1.08-.24-2.15.07-3.23.14-.53.87-.87,1.16-1.45s-.39-1.06-.36-1.48a2.61,2.61,0,0,1-1.8,1c-1.23,0-2.33-1-3.54-.58a42,42,0,0,1-4.21,1.55A1.54,1.54,0,0,0,607.91,676.32Zm-4.46,2c1.81,2.72,6,.49,7.37,1C608.92,676,605.64,678.87,603.45,678.37Zm-8.17-2c-.69.7-1.46.13-2,1.43.87-.37,1,1,1.34,1,1.67.22,2.94.52,3.85,2.21.56,1-1,1.08.41,1.32a2.29,2.29,0,0,1,1.56,1c.38.53.44,1.24.84,1.74a4.44,4.44,0,0,0,.77.73,3.28,3.28,0,0,0,.86.31,4.31,4.31,0,0,1,.49.22,2,2,0,0,1,.57.27c.14.12.49.24.57.4s0,.57.18.86c.05.08.27,0,.36,0a1.07,1.07,0,0,0,.34,0,4.81,4.81,0,0,1,.67-.13c.39,0,.34.08.84.05.11,0,.15.08.3.08s.26.1.29,0a6.45,6.45,0,0,1,.68-1.4,7.82,7.82,0,0,1,.61-1s.45-.33.41-.34c-5.18-1.1-9.78-4.94-8.67-9.83,0,0-.2-1.26-.65-1.42,0,0-.1-.16-.18-.17a1.74,1.74,0,0,1-.53-.26c-.06,0-.3-.12-.3-.21-.09.2-.07.38-.21.56a.67.67,0,0,1-.2.21c-.09,0-.09.13-.17.2-.39.39-.18,1-.12,1.42,0,.12.07.26-.07.28s0,0-.22-.16-.12-.1-.16-.13-.41-.08-.46-.16,0-.11-.11-.18-.2-.48-.33-.81a3,3,0,0,1-.08-.41c0-.26-.5-.64-.57-.66a1.14,1.14,0,0,0-.41-.18,2.47,2.47,0,0,0-.94,0,.46.46,0,0,0-.17.09,2.06,2.06,0,0,1-1,.57h0s.06.06.09.09c.2.26,0,.59.17.88a1.92,1.92,0,0,0,.57.7c.24.18.65-.06.83.26C595.28,675.86,595.67,676,595.28,676.34Zm.86,17c.94-.46.67-1,1.3-1.05,1-.11,1.13.06,1.31.64a1.37,1.37,0,0,1-.11.81c1.2.15,2.08-1.47,3.17-1,1.58.63,4.05,1.4,4.86.75.25-.2-.39-1.7.19-3.5-2.59,1.27-5.49.47-7.92-.69-1.36-.65-1.15-2.66-2.67-3.48a2.72,2.72,0,0,0-1.78-.21.5.5,0,0,0-.34.62c.24-.26.61.12.58.23-.23.74-.34.85.63,1.47-3.61-.2-2.38,2.87-2,2.15.17-.31,1.51.18,1.58.54s-.08.5-.7,1.6c-.13.25.53,1.73.58,1.4C595,692.89,595.76,693.14,596.14,693.36Zm-.53,11.52a2,2,0,0,0,1.07.57c-.06,0-.09-.17-.11-.24a.52.52,0,0,1,.08-.38c.11-.19.34-.1.53-.19a1.31,1.31,0,0,1,.9-.15l-.07,0c.23,0,.45.33.26.52s-.5.3-.65.6a1.35,1.35,0,0,0,.08,1.07,2.12,2.12,0,0,0,.59.52l.3.25c0-.09-.17-.2,0-.42,0,0,.24-.14.31-.09a1,1,0,0,0,.94.15,1.09,1.09,0,0,0,.6-.31c.37-.37.39-.77.7-1.15l.63-.44c.52-.26,2.59.93,1.12,2.41,1.59-1,4.44-2.51,6.7-1.62a4.56,4.56,0,0,1,2.36-6.48c-2.87-2.75-5.27-2.6-6.36.26-.54,1.41,1.12,3.08-.54,3.79a3.72,3.72,0,0,1-2.78-.17c-1.72-.61-.67-2.82-2.07-3.94-.94-.76-3.21-.64-3.21,1.27.1-.1.33-.32.5-.13.37,1,.36,1.26,1.35,1.51.22.05-.09.53-.26.49s-.66-.08-1-.2a1.69,1.69,0,0,0-1.19-.08,1.59,1.59,0,0,0-.7.42,2.19,2.19,0,0,0-.2.22,2.23,2.23,0,0,0-.2.33,1.67,1.67,0,0,0-.1.8.61.61,0,0,0,0,.3.78.78,0,0,0,.09.27C595.45,704.69,595.51,704.79,595.61,704.88Zm25.22,49.26c.09-.6.26-1.59,1.13-1.23a1.71,1.71,0,0,1,.76,2.1c1.26-.41,3.47-1.7,4.79-.74,1.78,1.28,4.69,1.81,6.77,2.45-1.38-1-1.82-3.45-1.59-5.08a15.87,15.87,0,0,1-9.73-.86c-.83-.39-.72-1.35-1-2.14a2.56,2.56,0,0,0-2.41-1.62c-.54,0-1.85,1.18-1.6,1.24-.09,0-.09.17-.13.24a.48.48,0,0,1,.67.27,1.72,1.72,0,0,0,.31.54c.19.18.51.22.61.42.58,1.13-2.28-.68-3.35,1-.35.54-.16,1.75-.16,2.43.66-.6,1.31.54,2.54-.55.13.13.28.2.09.39a1.44,1.44,0,0,0-.46,1.58,3.6,3.6,0,0,0,1.17,1C619.38,754.85,620.64,755.59,620.83,754.14Zm7.24-10.35c-1.27-.36-1.44-1.83-2.6-2.28a1.73,1.73,0,0,0-2.17,1.61.47.47,0,0,1,.63.26c.31,1.29,2.2.52,2.24,1.43,0,.59-1.41-.11-2,.27a2.08,2.08,0,0,0-.19,2.8c.69-.65,1.54.31,2.21-.17.47-.33.63-.81,1.11-1,1.45-.64,1.88.7,1.56,2a23.47,23.47,0,0,1,3-.87c.77-.21.8-2,1.73-2.62-1.32,0-3-.58-3.34-1.88,0-.13.06-.29.08-.45a3.29,3.29,0,0,0-.2-1.43s-.07-.1-.11-.16-.09-.15-.14-.23a1.79,1.79,0,0,0-.52-.38c-.08-.06-.19-.07-.25-.16l0,0a1,1,0,0,0-.38-.21,1.44,1.44,0,0,0-.43-.13,2.21,2.21,0,0,1-.35-.08c0,.09.12.35,0,.41s-.23.12-.37.33a.82.82,0,0,0-.12.25,5.12,5.12,0,0,0-.15.62,2.42,2.42,0,0,0,.06.47,3.7,3.7,0,0,0,.17.35l.24.26c.31.32.06.14.43.51C628.53,743.54,628.26,743.85,628.07,743.79Zm18.61-3.88a3,3,0,0,0-1.18-2.49c-.7,3.25-4,4.78-6.87,5.6s-4.5,3.37-5.37,5.93a3.25,3.25,0,0,0-.19,1c0,.26,1.64-1.73,2.81-1.15a3.33,3.33,0,0,1-.59,1.77c1.48-.23,3.48-.45,4.46-1.52.16-.17.06,1,.3,1.59a7.89,7.89,0,0,0,3.27,3.44c.34.2.29-.68,1-1.23s1.6.51,2.08.73-.48-1.33-.57-1.82C645,747.51,646.74,744,646.68,739.91Zm-1.1-5.92c-.77,1-2.07,1-3.26.72-1.8-.42-3.22-.86-4.52,0,0,0-1,1.09-.94,1.09-2-.11-3.26,1.24-3,2,.73-.32,1.43-1,2.23-.55s1,2.23.74,3A2.19,2.19,0,0,1,635,741.6c-.42,0-.2.62-.22.95,2.65-.22,5.55-1.7,7.87-2.94,1.16-.61,1.13-1.82,1.55-3C644.48,735.81,646,735.61,645.58,734Zm-15.5,4.87c1.4,3,4,1.08,6.18.74a4.4,4.4,0,0,0-1.86-1.15C632.24,738.8,631.71,739.61,630.08,738.86Zm-.82,29.92c2.6-1.25,5.08-3,8.13-2.39-1.78-1.86-1.15-5.85,1.36-6.34a15.53,15.53,0,0,1-1.79-.37c-2.18-1.38-4.85-2.71-6.32.2-.73,1.44.61,2.6,1.61,3.79.18.21-.11.35-.34.41-2.39.61-6.79,1-7-2.6,0-.36-.95-.66-1.54-.64-1.77,0-1.74,2.3-1.54,2.15.39-.3,1.57-.19,1.43.71s-1.78-.44-2.44.41a2.67,2.67,0,0,0-.14,2.65c-.08-.29.25-.5.43-.53,1.83-.3,1.93.33,1.39,2.11,0,.13.54,1.25.93,1.35a.53.53,0,0,1,0-.34.46.46,0,0,1,.23-.18c.2-.06.4,0,.61-.1a1.65,1.65,0,0,0,.25-.15,1.3,1.3,0,0,0,.35-.35c.43-.53.8-1.22,1.52-1.29a1.27,1.27,0,0,1,.83.3h0c.64-.78,1.17-.37,1.44-.36C629.38,767.26,629.33,768.19,629.26,768.78Zm32.93-16.29c-.58-.21-1.31-.68-2-.56s-1.12,1.19-2,1.36c1.41-4.74-1.31-11.34-6.52-11.22a3,3,0,0,0-2.56,1.87,3.41,3.41,0,0,0,.27,3.14c1.71,2,2.94,4.26,2.4,7a5.83,5.83,0,0,0,2.3-4.24c0-.41.74-.11.85-.29,1.43-2.08-.9-3.37-2.14-4.69-.34-.35.53-.9.64-.86,4.47,1.33,4.89,6.83,3,10.41-.51-.64-2.4-.43-3-.64,2.09,1,1.55,1.2,1.46,1.55-.16.63-2,.35-2.4.81-.63.81-1.1,1.16-1.14,3.81.86-.93,2-2.35,3.23-1.71,2.63,1.35-.13,5.9-2.61,6.65a4.64,4.64,0,0,1-5.39-1.88c-1.9-2.67-.52-5.9-1.87-8.61-1.12.28-.87,1.74-1.45,1.48-2.07-1-3.24-3.16-4.74-5-.62.22-.89.79-1.49.77-.88,0-2.55-.32-2.91.13s-.71,4.27,2.94,5.62c2.48.93,4.44,1.76,6,3.69-1,.09-1.41-.42-2.26-.45a3.6,3.6,0,0,0-2,.62,2.83,2.83,0,0,0-1.2,2.46c.57,4.54,5.91,4.6,8.36,7.47.42.49-.64,2.47-1.65,3.27s-2.91-1-2.58-2.48c.28-1.16-2.53-1.93-3.51-.61.39,0,.49.21.45.4-.17,1.06,1.16,1.11,1.11,1.65-.06.75-.7-.32-1.22-.41a2.85,2.85,0,0,0-2.91,1.07c-.2.27-.65.71-.45,1.17.87-.42,1.32.93,2.12.51.49-.25.89-.68,1.48-.53.24.06.48.38.27.52-1.58,1-2.84,2.42-1.7,4a.85.85,0,0,1,.57-.71c.46-.13,1.07.19,1.51,0,.74-.24.36-1,.64-1.49.44-.82,1.92-2.18,2.76-1.19.15.18,0,.84-.42.85.46,0,.88.44,1.27.36a1.21,1.21,0,0,0,.33-.07c.09,0,.19-.06.26-.14a1.19,1.19,0,0,0,.42-.67c.34,0,.77.06,1-.23a5.5,5.5,0,0,1,.62-.65l0,0,.14-.13-.1.08c1.65-1.66,2.86-3.85,4.63-5.45-2-1.16-4.4-2.37-4.65-5,0-.18.27-.38.34-.34,2.73,1.53,6.41,1.65,8.38-1.14,1.59-2.25,2.28-5.91,5.38-6.12C659.33,755.82,660.49,753.54,662.19,752.49Zm14.3-4.13L639.14,718.7l-37.51,29.75q1.32,2.7,2.83,5.37l34.68-27.49,34.52,27.41Q675.18,751.06,676.49,748.36Zm5.55-14-42.9-34.06-43.07,34.16c.63,2,1.32,4,2.09,6l41-32.49L680,740.37C680.71,738.39,681.41,736.41,682,734.41Zm-.57-62.51c-2.55-.85-5,1.52-5.28,4a18.69,18.69,0,0,0,1,6.73c.15.54.06,1.15.17,1.61a22.17,22.17,0,0,0,.48-5.72,1.4,1.4,0,0,1,.86-1.26,1.7,1.7,0,0,1,2.4,1.65,69.63,69.63,0,0,1-1.66,8.07c-.79,3.31.4,6.6.74,9.83-1.27-.75-2.65-.79-3.14,1.2-.27,1,.68,2.16,1,3.09,0-1.27,1.23-3,2.39-2.23,1.42.95,1.48,5.5,1.16,6.11-.69,1.31-1.83,2.26-3.41,1.79-.89-.26-.53-1.58-1.06-2.13a15.78,15.78,0,0,1-4.37-10.5c0-.59.27-2.15.18-2.19-3.71-1.52-5.41,0-7,2.19-.27-.66-1.69-1.59-1.8-1.38-.71,1.3-.5,3.67.55,4.59,2.86,2.48,5.7,4.13,7.31,7.67-1.72.23-3.4.72-4.05,2.52s-.46,4.47,1.52,5.24c1.61.61,4.38-.08,5,0,1.71.22,3.63,1.7,3.36,3.32,0,.08-.73,3.86-2.37,2.93-.89-.51-.39-2.59-1.74-2.91-1.82-.44-2.27,2.1-2,1.88.58-.55,1,.36,2.11,1-3.81-.83-2.63,2.66-2.49,2.28.2-.54.89,0,2.25-.07.05,0-.29.29-.31.31a5.57,5.57,0,0,0-.48.9,1.1,1.1,0,0,0,0,.54,1.21,1.21,0,0,0,.19.52.18.18,0,0,0,.09.08s.07.1.08.1-.07-.27.15-.29a1.13,1.13,0,0,1,.26,0l.33.13.31.06a1,1,0,0,0,.58,0,3.59,3.59,0,0,0,.51-.2s0,0,.06,0l-.06,0s.32-.27.31-.23c.23-.51.38-.36.43-.45.41-.77.76-.85,1.65-.74.09,0,.25.19.31.27s.25.58.21.4c.07.36.29.59.32.93,0-.39.94-1.56,1-2.42.09-2.91,1.84-4.28,1.9-7.4,0-.81-3.36-1.58-3.51-3.32-.06-.87-.35-2.13.52-2.11a4.36,4.36,0,0,0,3-.87c3.52-3.1.55-7.33.12-11.07-.09-.82,1.43-2.58,1.38-3.16-.24-3.18-.83-6.07.3-9.18-.89.79-1.15,2.1-1.89,2.77-.37.33-.54-.41-.52-.52a27.76,27.76,0,0,1,2.81-7.74C685,675.33,684.25,672.82,681.47,671.9Zm-12.32,2.75h0v0m-27.75,61a0,0,0,0,0,0,0,10.93,10.93,0,0,0-1.13-.15c-.28,0-.5-.23-.78-.28a.45.45,0,0,0-.23,0c-.11,0-.14.13-.23.17s-.34.06-.46.17a.8.8,0,0,0-.28.4.75.75,0,0,0,.13.63.88.88,0,0,0,.39.24c.47.17,1.83-.59,2.32-.86A1.33,1.33,0,0,0,641.4,735.66Z"/>
        <path class="cls-9" d="M675.25,723.23l-.06,0S675.18,723.28,675.25,723.23Z"/>
        <path class="cls-9" d="M669.15,674.64c-1.16-.57-2.66-1.34-3.19.21-.39,1.14,2.18.34,3.19-.19,0,.05.11-.07,0,0"/>
        <rect class="cls-19" x="483" y="579.74" width="743" height="296.14"/>
    </g>
    <g id="rocket">
        <g id="rocket_body" data-name="rocket body">
            <g id="main-body-2" data-name="main-body">
                <g id="booster-thrust">
                    <g id="booster-thrust-2">
                        <ellipse class="cls-20" cx="200.58" cy="1382.07" rx="6.6" ry="19.43"/>
                    </g>
                    <ellipse class="cls-21" cx="200.95" cy="1375.47" rx="2.57" ry="11.36"/>
                    <ellipse class="cls-20" cx="287.1" cy="1382.07" rx="6.6" ry="19.43"/>
                    <ellipse class="cls-21" cx="287.46" cy="1375.47" rx="2.57" ry="11.36"/>
                </g>
                <g id="main-thrust">
                    <ellipse class="cls-20" cx="259.24" cy="1381.34" rx="6.6" ry="19.43"/>
                    <ellipse class="cls-21" cx="259.6" cy="1374.74" rx="2.57" ry="11.36"/>
                    <ellipse class="cls-20" cx="229.17" cy="1382.07" rx="6.6" ry="19.43"/>
                    <ellipse class="cls-21" cx="229.54" cy="1375.47" rx="2.57" ry="11.36"/>
                </g>
                <g id="main-boosters">
                    <path class="cls-22" d="M236.54,1358.92a48.79,48.79,0,0,1-6.27.52h-1.46a48.49,48.49,0,0,1-6.26-.52c-.6,2.88-1.21,5.93-1.81,9.22a47.5,47.5,0,0,1,8.07-.83h1.46a47.5,47.5,0,0,1,8.07.83C237.74,1364.85,237.14,1361.8,236.54,1358.92Z"/>
                    <path class="cls-23" d="M236.54,1358.92a48.79,48.79,0,0,1-6.27.52h-1.46a48.49,48.49,0,0,1-6.26-.52c-.6,2.88-1.21,5.93-1.81,9.22a47.5,47.5,0,0,1,8.07-.83h1.46a47.5,47.5,0,0,1,8.07.83C237.74,1364.85,237.14,1361.8,236.54,1358.92Z"/>
                    <path class="cls-23" d="M221.11,1365.57a33.9,33.9,0,0,1,16.86,0"/>
                    <path class="cls-23" d="M221.84,1363.37a31.12,31.12,0,0,1,15.4,0"/>
                    <path class="cls-23" d="M221.84,1361.17a31.12,31.12,0,0,1,15.4,0"/>
                    <path class="cls-22" d="M265.86,1358.92a48.49,48.49,0,0,1-6.26.52h-1.46a48.79,48.79,0,0,1-6.27-.52c-.6,2.88-1.2,5.93-1.8,9.22a47.5,47.5,0,0,1,8.07-.83h1.46a47.5,47.5,0,0,1,8.07.83C267.07,1364.85,266.46,1361.8,265.86,1358.92Z"/>
                    <path class="cls-23" d="M265.86,1358.92a48.49,48.49,0,0,1-6.26.52h-1.46a48.79,48.79,0,0,1-6.27-.52c-.6,2.88-1.2,5.93-1.8,9.22a47.5,47.5,0,0,1,8.07-.83h1.46a47.5,47.5,0,0,1,8.07.83C267.07,1364.85,266.46,1361.8,265.86,1358.92Z"/>
                    <path class="cls-23" d="M250.44,1365.57a33.9,33.9,0,0,1,16.86,0"/>
                    <path class="cls-23" d="M251.17,1363.37a31.12,31.12,0,0,1,15.4,0"/>
                    <path class="cls-23" d="M251.17,1361.17a31.12,31.12,0,0,1,15.4,0"/>
                </g>
                <g id="connector">
                    <path class="cls-24" d="M286.33,1322.32c-28.94-1-57.51-1-86.45,0q6.06-76.53,17-153.07a369.94,369.94,0,0,1,52.43,0Q280.27,1245.78,286.33,1322.32Z"/>
                    <path class="cls-23" d="M286.33,1322.32c-28.94-1-57.51-1-86.45,0q6.06-76.53,17-153.07a369.94,369.94,0,0,1,52.43,0Q280.27,1245.78,286.33,1322.32Z"/>
                </g>
                <g id="body">
                    <path class="cls-25" d="M267.15,1070.36a49.7,49.7,0,0,1-.95-8.69l-.73-129.78a77.74,77.74,0,0,1,.55-8.76l.31-2.27a80.22,80.22,0,0,0,.6-8.76V853.44c0-2.42-.11-5.61-.24-7.09s-.82-6.6-1.22-8.06-2-6.81-2.69-8.55-3.32-7.9-4.4-9.78-5.38-8.13-7.25-9.7l-3.58-3.08a5.34,5.34,0,0,0-6.69,0l-3.58,3.08a29,29,0,0,0-5.3,6.28c-1.07,1.88-4.46,8.27-5.13,10s-2.77,7.56-3.17,9-1.58,6.6-1.71,8.07-.49,7.35-.49,9.77V912.1a78.3,78.3,0,0,0,.58,8.79l.3,2.28a77.07,77.07,0,0,1,.58,8.72l-.73,129.78a49.73,49.73,0,0,1-1,8.69l-4.71,21.47a49.88,49.88,0,0,0-.92,8.7v255.88a4.4,4.4,0,0,0,4.4,4.4H268.4a4.4,4.4,0,0,0,4.4-4.4V1100.53a48.77,48.77,0,0,0-.95-8.7Z"/>
                    <path class="cls-26" d="M267.15,1070.36a49.7,49.7,0,0,1-.95-8.69l-.73-129.78a77.74,77.74,0,0,1,.55-8.76l.31-2.27a80.22,80.22,0,0,0,.6-8.76V853.44c0-2.42-.11-5.61-.24-7.09s-.82-6.6-1.22-8.06-2-6.81-2.69-8.55-3.32-7.9-4.4-9.78-5.38-8.13-7.25-9.7l-3.58-3.08a5.34,5.34,0,0,0-6.69,0l-3.58,3.08a29,29,0,0,0-5.3,6.28c-1.07,1.88-4.46,8.27-5.13,10s-2.77,7.56-3.17,9-1.58,6.6-1.71,8.07-.49,7.35-.49,9.77V912.1a78.3,78.3,0,0,0,.58,8.79l.3,2.28a77.07,77.07,0,0,1,.58,8.72l-.73,129.78a49.73,49.73,0,0,1-1,8.69l-4.71,21.47a49.88,49.88,0,0,0-.92,8.7v255.88a4.4,4.4,0,0,0,4.4,4.4H268.4a4.4,4.4,0,0,0,4.4-4.4V1100.53a48.77,48.77,0,0,0-.95-8.7Z"/>
                </g>
                <g id="details">
                    <g id="cap">
                        <path class="cls-15" d="M272.72,1098a114.73,114.73,0,0,0-57,0l6.48-31.25a88.64,88.64,0,0,1,44.07,0Q269.46,1082.34,272.72,1098Z"/>
                        <path class="cls-26" d="M272.72,1098a114.73,114.73,0,0,0-57,0l6.48-31.25a88.64,88.64,0,0,1,44.07,0Q269.46,1082.34,272.72,1098Z"/>
                    </g>
                    <g id="text">
                        <text class="cls-27" transform="translate(251.29 1304.24) rotate(-90) scale(1.04 1)">UWATERLOO</text>
                    </g>
                    <ellipse class="cls-26" cx="244.02" cy="999.16" rx="10.64" ry="43.33"/>
                    <path class="cls-26" d="M236.38,1019.6a50.83,50.83,0,0,0,15.28,0"/>
                    <path class="cls-26" d="M236.31,1009.38a101.5,101.5,0,0,0,15.4,0"/>
                    <path class="cls-26" d="M236.28,999.16h15.48"/>
                    <path class="cls-26" d="M236.31,988.94a101.5,101.5,0,0,1,15.4,0"/>
                    <path class="cls-26" d="M236.38,978.73a50.18,50.18,0,0,1,15.28,0"/>
                    <path class="cls-26" d="M249,968q.3,31.14,0,62.28"/>
                    <path class="cls-26" d="M246.53,967.73q.14,31.44,0,62.86"/>
                    <path class="cls-26" d="M244,967.64v63.05"/>
                    <path class="cls-26" d="M241.51,967.73q-.13,31.44,0,62.86"/>
                    <path class="cls-26" d="M239,968q-.3,31.14,0,62.28"/>
                </g>
            </g>
            <g id="booster-left">
                <g id="boosters">
                    <path class="cls-22" d="M207.94,1358.18a45.18,45.18,0,0,1-6.26.52h-1.47a45.43,45.43,0,0,1-6.26-.52c-.6,2.88-1.2,5.93-1.8,9.23a46.49,46.49,0,0,1,8.06-.83h1.47a46.29,46.29,0,0,1,8.06.83C209.14,1364.11,208.54,1361.06,207.94,1358.18Z"/>
                    <path class="cls-23" d="M207.94,1358.18a45.18,45.18,0,0,1-6.26.52h-1.47a45.43,45.43,0,0,1-6.26-.52c-.6,2.88-1.2,5.93-1.8,9.23a46.49,46.49,0,0,1,8.06-.83h1.47a46.29,46.29,0,0,1,8.06.83C209.14,1364.11,208.54,1361.06,207.94,1358.18Z"/>
                    <path class="cls-23" d="M192.51,1364.84a33.94,33.94,0,0,1,16.87,0"/>
                    <path class="cls-23" d="M193.25,1362.64a30.89,30.89,0,0,1,15.4,0"/>
                    <path class="cls-23" d="M193.25,1360.44a30.89,30.89,0,0,1,15.4,0"/>
                </g>
                <g id="main-body-2-2" data-name="main-body-2">
                    <path class="cls-24" d="M213,1148.92c-.6-1.21-4,1.81-7.5,6.73l-11.38,15.86c-3.53,4.92-6.43,13.88-6.45,19.93l-.65,158.37a11,11,0,0,0,10.95,11h6.6a11,11,0,0,0,10.93-11v0l-1.32-187.7C214.18,1156.06,213.65,1150.13,213,1148.92Z"/>
                </g>
                <g id="details-2">
                    <path class="cls-28" d="M205.35,1282.36c0,1.61-1,2.93-2.2,2.93s-2.2-1.32-2.2-2.93v-80.65c0-1.62,1-2.94,2.2-2.94s2.2,1.32,2.2,2.94Z"/>
                    <path class="cls-29" d="M205.35,1282.36c0,1.61-1,2.93-2.2,2.93s-2.2-1.32-2.2-2.93v-80.65c0-1.62,1-2.94,2.2-2.94s2.2,1.32,2.2,2.94Z"/>
                </g>
                <ellipse class="cls-29" cx="201.31" cy="1336.98" rx="8.3" ry="22.83"/>
                <path class="cls-29" d="M195.38,1347.74a86.93,86.93,0,0,0,11.86,0"/>
                <path class="cls-29" d="M195.35,1342.36q6,.21,11.93,0"/>
                <path class="cls-29" d="M195.33,1337h12"/>
                <path class="cls-29" d="M195.35,1331.6q6-.21,11.93,0"/>
                <path class="cls-29" d="M195.38,1326.22a83.83,83.83,0,0,1,11.86,0"/>
                <path class="cls-29" d="M205.23,1320.66q.14,16.32,0,32.64"/>
                <path class="cls-29" d="M203.27,1320.56q.07,16.43,0,32.84"/>
                <path class="cls-29" d="M201.31,1320.53v32.9"/>
                <path class="cls-29" d="M199.36,1320.56q-.09,16.43,0,32.84"/>
                <path class="cls-29" d="M197.4,1320.66q-.14,16.32,0,32.64"/>
            </g>
            <g id="booster-right">
                <path class="cls-22" d="M280.47,1358.18a45.18,45.18,0,0,0,6.26.52h1.47a45.43,45.43,0,0,0,6.26-.52c.6,2.88,1.2,5.93,1.8,9.23a46.49,46.49,0,0,0-8.06-.83h-1.47a46.5,46.5,0,0,0-8.07.83C279.27,1364.11,279.87,1361.06,280.47,1358.18Z"/>
                <path class="cls-23" d="M280.47,1358.18a45.18,45.18,0,0,0,6.26.52h1.47a45.43,45.43,0,0,0,6.26-.52c.6,2.88,1.2,5.93,1.8,9.23a46.49,46.49,0,0,0-8.06-.83h-1.47a46.5,46.5,0,0,0-8.07.83C279.27,1364.11,279.87,1361.06,280.47,1358.18Z"/>
                <path class="cls-23" d="M295.89,1364.84a33.9,33.9,0,0,0-16.86,0"/>
                <path class="cls-23" d="M295.16,1362.64a30.89,30.89,0,0,0-15.4,0"/>
                <path class="cls-23" d="M295.16,1360.44a30.89,30.89,0,0,0-15.4,0"/>
                <g id="main-body-3">
                    <path class="cls-24" d="M275.37,1148.92c.6-1.21,4,1.81,7.5,6.73l11.38,15.86c3.53,4.92,6.43,13.88,6.45,19.93l.65,158.37a11,11,0,0,1-11,11h-6.6a11,11,0,0,1-10.93-11v0l1.32-187.7C274.27,1156.06,274.76,1150.13,275.37,1148.92Z"/>
                </g>
                <g id="details-3">
                    <path class="cls-28" d="M283.06,1282.36c0,1.61,1,2.93,2.2,2.93s2.2-1.32,2.2-2.93v-80.65c0-1.62-1-2.94-2.2-2.94s-2.2,1.32-2.2,2.94Z"/>
                    <path class="cls-29" d="M283.06,1282.36c0,1.61,1,2.93,2.2,2.93s2.2-1.32,2.2-2.93v-80.65c0-1.62-1-2.94-2.2-2.94s-2.2,1.32-2.2,2.94Z"/>
                </g>
                <ellipse class="cls-29" cx="287.1" cy="1336.98" rx="8.3" ry="22.83"/>
                <path class="cls-29" d="M293,1347.74a87.07,87.07,0,0,1-11.87,0"/>
                <path class="cls-29" d="M293.06,1342.36q-6,.21-11.93,0"/>
                <path class="cls-29" d="M293.08,1337h-12"/>
                <path class="cls-29" d="M293.06,1331.6q-6-.21-11.93,0"/>
                <path class="cls-29" d="M293,1326.22a84,84,0,0,0-11.87,0"/>
                <path class="cls-29" d="M283.18,1320.66q-.14,16.32,0,32.64"/>
                <path class="cls-29" d="M285.14,1320.56q-.09,16.43,0,32.84"/>
                <path class="cls-29" d="M287.1,1320.53v32.9"/>
                <path class="cls-29" d="M289.05,1320.56q.09,16.43,0,32.84"/>
                <path class="cls-29" d="M291,1320.66q.14,16.32,0,32.64"/>
            </g>
        </g>
    </g>
</svg>