<svg xmlns="http://www.w3.org/2000/svg" viewBox="0 0 260 260">
    <defs>
        <style>.cls-1{fill:none;}.cls-2{fill:#221563;}.cls-3{fill:#03030c;}</style>
    </defs>
    <title>share btn expand instagram (3)revised</title>
    <g id="Layer_2" data-name="Layer 2">
        <g id="share_btn_expand_instagram" data-name="share btn expand instagram">
            <g id="background">
                <circle class="cls-1" cx="130" cy="130" r="130"/>
            </g>
            <circle class="cls-2" cx="130" cy="138" r="100"/>
            <g id="instagram_outer" data-name="instagram outer">
                <path class="cls-3" d="M180,76a12,12,0,0,1,12,12V188a12,12,0,0,1-12,12H80a12,12,0,0,1-12-12V88A12,12,0,0,1,80,76H180m0-20H80A32,32,0,0,0,48,88V188a32,32,0,0,0,32,32H180a32,32,0,0,0,32-32V88a32,32,0,0,0-32-32Z"/>
            </g>
            <g id="instagram_inner" data-name="instagram inner">
                <circle class="cls-3" cx="130.5" cy="135.5" r="35"/>
                <circle class="cls-3" cx="178" cy="90" r="10"/>
            </g>
        </g>
    </g>
</svg>