<svg xmlns="http://www.w3.org/2000/svg" viewBox="0 0 260 260">
    <defs>
        <style>.cls-1,.cls-4{fill:none;}.cls-2{fill:#221563;}.cls-3{fill:#03030c;}.cls-4{stroke:#03030c;stroke-miterlimit:10;stroke-width:15px;}</style>
    </defs>
    <title>Asset 34revised</title>
    <g id="Layer_2" data-name="Layer 2">
        <g id="share_btn_expland_email" data-name="share btn expland email">
            <g id="background">
                <circle class="cls-1" cx="130" cy="130" r="130"/>
            </g>
            <circle class="cls-2" cx="130" cy="130" r="100"/>
            <g id="email_outer" data-name="email outer">
                <path class="cls-3" d="M179,75a12,12,0,0,1,12,12v87a12,12,0,0,1-12,12H79a12,12,0,0,1-12-12V87A12,12,0,0,1,79,75H179m0-20H79A32,32,0,0,0,47,87v87a32,32,0,0,0,32,32H179a32,32,0,0,0,32-32V87a32,32,0,0,0-32-32Z"/>
            </g>
            <g id="envelope">
                <path class="cls-4" d="M66.5,65.5l63,50,63-50"/>
            </g>
        </g>
    </g>
</svg>