<svg xmlns="http://www.w3.org/2000/svg" viewBox="0 0 273 260">
    <defs>
        <style>.cls-1,.cls-4{fill:none;}.cls-2{fill:#fff;}.cls-3{fill:#03030c;}.cls-4{stroke:#03030c;stroke-miterlimit:10;stroke-width:15px;}</style>
    </defs>
    <title>share btn expland email (3)revised</title>
    <g id="Layer_2" data-name="Layer 2">
        <g id="share_btn_expland_email" data-name="share btn expland email">
            <g id="background">
                <circle class="cls-1" cx="143" cy="130" r="130"/>
            </g>
            <circle class="cls-2" cx="100" cy="119" r="100"/>
            <g id="email_outer" data-name="email outer">
                <path class="cls-3" d="M190,63a12,12,0,0,1,12,12v87a12,12,0,0,1-12,12H90a12,12,0,0,1-12-12V75A12,12,0,0,1,90,63H190m0-20H90A32,32,0,0,0,58,75v87a32,32,0,0,0,32,32H190a32,32,0,0,0,32-32V75a32,32,0,0,0-32-32Z"/>
            </g>
            <g id="envelope">
                <path class="cls-4" d="M77.5,53.5l63,50,63-50"/>
            </g>
        </g>
    </g>
</svg>