<svg xmlns="http://www.w3.org/2000/svg" xmlns:xlink="http://www.w3.org/1999/xlink" viewBox="0 0 1920 1919"><defs><style>.cls-1{fill:#fff;}.cls-1,.cls-3{fill-rule:evenodd;}.cls-10,.cls-12,.cls-13,.cls-14,.cls-17,.cls-2,.cls-3,.cls-4{fill:#0d0830;}.cls-10,.cls-12,.cls-13,.cls-14,.cls-17,.cls-2,.cls-3,.cls-6{stroke:#fff;stroke-width:2px;}.cls-10,.cls-12,.cls-13,.cls-17,.cls-2,.cls-3,.cls-6{stroke-miterlimit:10;}.cls-5{clip-path:url(#clip-path);}.cls-6{fill:none;}.cls-7{clip-path:url(#clip-path-2);}.cls-8{clip-path:url(#clip-path-3);}.cls-10,.cls-13,.cls-17,.cls-9{isolation:isolate;}.cls-10,.cls-12,.cls-13{font-size:31.36px;}.cls-10,.cls-12{font-family:ArialMT, Arial;}.cls-10{letter-spacing:-0.11em;}.cls-11{letter-spacing:0em;}.cls-13{font-family:Arial-BoldMT, Arial;font-weight:700;}.cls-15{mask:url(#mask);}.cls-16{mask:url(#mask-2);}.cls-17{opacity:0.05;}
</style><clipPath id="clip-path"><path class="cls-2" d="M951.41,1313.91l-14.28,8.24a1.73,1.73,0,0,0-.87,1.5v16.5a1.7,1.7,0,0,0,.87,1.49l14.28,8.26a1.78,1.78,0,0,0,1.73,0l14.28-8.26a1.69,1.69,0,0,0,.86-1.49v-16.5a1.72,1.72,0,0,0-.86-1.5l-14.28-8.24a1.8,1.8,0,0,0-.87-.23,1.76,1.76,0,0,0-.86.23"/></clipPath><clipPath id="clip-path-2"><path class="cls-2" d="M936.62,1341.2a1.46,1.46,0,0,0,.51.44l12.25,7.08,2,1.18a1.75,1.75,0,0,0,1,.22l.34-.06,15.06-27.59a1.82,1.82,0,0,0-.4-.32l-9.35-5.4-5-2.84a1.77,1.77,0,0,0-.45-.18Z"/></clipPath><clipPath id="clip-path-3"><path class="cls-2" d="M952.1,1313.69a1.74,1.74,0,0,0-.69.22l-14.24,8.22,15.36,28a1.7,1.7,0,0,0,.61-.21l14.29-8.26a1.7,1.7,0,0,0,.83-1.17l-15.66-26.75a1.34,1.34,0,0,0-.35,0h-.14"/></clipPath><mask id="mask" x="1156.04" y="626.34" width="150.96" height="66.16" maskUnits="userSpaceOnUse"><g id="d"><path id="c" class="cls-1" d="M1156,627.34h150V691.5H1156"/></g></mask><mask id="mask-2" x="1155" y="626.34" width="151" height="65.92" maskUnits="userSpaceOnUse"><g id="d-2" data-name="d"><path id="c-2" data-name="c" class="cls-1" d="M1156,627.34h150V691.5H1156"/></g></mask></defs><title>102Artboard 1</title><g id="indesign"><path class="cls-2" d="M338.25,818.41h137.5V952.16H338.25Z"/><path class="cls-2" d="M338.25,818.41h137.5V952.16H338.25Zm-6.25,140H482V812.16H332Zm94.88-85.5a8.87,8.87,0,0,0-3.69-.63c-8.07,0-13.69,6.19-13.69,16.5,0,11.75,5.75,16.5,12.94,16.5a11.29,11.29,0,0,0,4.44-.75Zm-3.32-10.19a29.88,29.88,0,0,1,3.31.12V846.22a.6.6,0,0,1,.63-.63h10.12c.5,0,.63.19.63.5v58.44a47.43,47.43,0,0,0,.31,6.31c0,.44-.12.5-.56.75a38.12,38.12,0,0,1-16.38,3.69c-13.81,0-23.68-8.56-23.68-26-.07-14.94,9.81-26.56,25.62-26.56Zm-36.68,50.81c0,.63-.13.81-.82.81h-9.62c-.63,0-.82-.31-.82-.81V846.41c0-.63.32-.82.82-.82h9.69c.49,0,.75.19.75.75Z"/></g><g id="illustrator"><path class="cls-2" d="M338.25,1043.13h137.5v133.75H338.25Z"/><path class="cls-2" d="M338.25,1043.13h137.5v133.75H338.25Zm-6.25,140H482V1036.88H332ZM430.25,1089c0-.5.19-.75.75-.75h9.81c.5,0,.75.19.75.75v49.31c0,.5-.12.75-.75.75h-9.68c-.63,0-.82-.31-.82-.81V1089Zm-.69-14.19a6.38,6.38,0,0,1,12.75,0c0,4.13-2.68,6.38-6.5,6.38C432.19,1081.19,429.56,1078.94,429.56,1074.81Zm-28.12,34.75c-1.75-6.93-5.88-22.06-7.44-29.37h-.12c-1.32,7.31-4.63,19.69-7.25,29.37Zm-17.38,10.13-4.93,18.75c-.13.5-.32.62-.94.62H369c-.62,0-.75-.18-.62-.93L386.13,1076a20.14,20.14,0,0,0,.62-5.19c0-.43.19-.62.5-.62h13.13c.43,0,.62.12.75.62L421,1138.25c.13.5,0,.81-.5.81H410.13c-.5,0-.82-.12-.94-.56l-5.13-18.81Z"/></g><g id="nodejs"><path class="cls-2" d="M971.05,1384.55a2.88,2.88,0,0,1-1.42-.38l-4.52-2.67c-.68-.38-.35-.51-.12-.59a9.57,9.57,0,0,0,2-.93.35.35,0,0,1,.34,0l3.47,2.06a.45.45,0,0,0,.42,0l13.55-7.82a.44.44,0,0,0,.21-.36v-15.64a.46.46,0,0,0-.21-.37l-13.55-7.81a.38.38,0,0,0-.41,0l-13.54,7.81a.45.45,0,0,0-.22.37v15.63a.45.45,0,0,0,.22.37l3.7,2.14c2,1,3.25-.18,3.25-1.38v-15.42a.38.38,0,0,1,.39-.39h1.72a.39.39,0,0,1,.39.39V1375c0,2.69-1.47,4.23-4,4.23a5.82,5.82,0,0,1-3.13-.85l-3.55-2.05a2.84,2.84,0,0,1-1.42-2.47v-15.63a2.84,2.84,0,0,1,1.42-2.47l13.56-7.82a3,3,0,0,1,2.85,0l13.54,7.83a2.83,2.83,0,0,1,1.42,2.46v15.64a2.83,2.83,0,0,1-1.42,2.46l-13.54,7.83a2.86,2.86,0,0,1-1.43.38"/><path class="cls-2" d="M975.24,1373.78c-5.93,0-7.17-2.72-7.17-5a.38.38,0,0,1,.39-.39h1.75a.4.4,0,0,1,.39.33c.26,1.78,1,2.68,4.63,2.68,2.86,0,4.07-.64,4.07-2.16,0-.87-.35-1.51-4.78-2-3.71-.36-6-1.18-6-4.15,0-2.73,2.3-4.36,6.17-4.36,4.33,0,6.48,1.51,6.75,4.74a.41.41,0,0,1-.1.3.41.41,0,0,1-.29.13h-1.76a.39.39,0,0,1-.38-.31c-.42-1.87-1.45-2.47-4.23-2.47-3.12,0-3.48,1.08-3.48,1.9,0,1,.43,1.27,4.63,1.83s6.14,1.33,6.14,4.26-2.46,4.64-6.75,4.64m16.5-16.58h.45a.4.4,0,0,0,.45-.41c0-.4-.28-.4-.43-.4h-.47Zm-.56-1.28h1c.35,0,1,0,1,.77a.68.68,0,0,1-.56.72c.41,0,.43.29.49.67a3.09,3.09,0,0,0,.15.77h-.62c0-.14-.11-.88-.11-.92s-.1-.25-.31-.25h-.51v1.17h-.57ZM990,1357.4a2.19,2.19,0,1,0,2.18-2.19,2.19,2.19,0,0,0-2.18,2.19m4.8,0a2.61,2.61,0,1,1-2.61-2.61,2.61,2.61,0,0,1,2.61,2.61"/><path class="cls-3" d="M929.1,1323.39a1.73,1.73,0,0,0-.86-1.51l-14.36-8.26a1.75,1.75,0,0,0-.79-.23h-.15a1.76,1.76,0,0,0-.8.23l-14.36,8.26a1.76,1.76,0,0,0-.87,1.51l0,22.26a.86.86,0,0,0,1.29.75l8.54-4.89a1.77,1.77,0,0,0,.86-1.51v-10.39a1.73,1.73,0,0,1,.87-1.51l3.63-2.09a1.76,1.76,0,0,1,1.74,0l3.63,2.09a1.73,1.73,0,0,1,.87,1.5V1340a1.75,1.75,0,0,0,.87,1.51l8.53,4.88a.85.85,0,0,0,.87,0,.87.87,0,0,0,.43-.75ZM996.88,1335a.43.43,0,0,1-.22.37l-4.93,2.85a.49.49,0,0,1-.44,0l-4.93-2.85a.41.41,0,0,1-.22-.37v-5.7a.41.41,0,0,1,.22-.37l4.93-2.85a.42.42,0,0,1,.43,0l4.94,2.85a.42.42,0,0,1,.21.37Zm1.33-42.18a.86.86,0,0,0-1.29.75v22a.63.63,0,0,1-.3.53.61.61,0,0,1-.61,0l-3.6-2.07a1.73,1.73,0,0,0-1.73,0l-14.37,8.29a1.73,1.73,0,0,0-.87,1.5v16.59a1.73,1.73,0,0,0,.87,1.5l14.37,8.3a1.78,1.78,0,0,0,1.73,0l14.37-8.3a1.75,1.75,0,0,0,.87-1.51v-41.34a1.74,1.74,0,0,0-.89-1.51Zm47.84,36.33a1.74,1.74,0,0,0,.86-1.5v-4a1.75,1.75,0,0,0-.86-1.5l-14.28-8.28a1.68,1.68,0,0,0-1.73,0l-14.37,8.29a1.73,1.73,0,0,0-.87,1.5v16.58a1.75,1.75,0,0,0,.88,1.51l14.27,8.13a1.69,1.69,0,0,0,1.7,0l8.64-4.79a.89.89,0,0,0,.44-.76.86.86,0,0,0-.44-.75l-14.45-8.3a.86.86,0,0,1-.44-.75v-5.2a.87.87,0,0,1,.44-.75l4.49-2.59a.85.85,0,0,1,.87,0l4.5,2.59a.85.85,0,0,1,.43.75v4.09a.86.86,0,0,0,.44.75.88.88,0,0,0,.86,0Z"/><path class="cls-3" d="M1030.69,1328.36a.34.34,0,0,1,.34,0l2.75,1.59a.32.32,0,0,1,.17.29v3.18a.32.32,0,0,1-.17.29l-2.75,1.59a.34.34,0,0,1-.34,0l-2.75-1.59a.32.32,0,0,1-.17-.29v-3.18a.32.32,0,0,1,.17-.29Z"/><path class="cls-4" d="M951.41,1313.91l-14.28,8.24a1.73,1.73,0,0,0-.87,1.5v16.5a1.7,1.7,0,0,0,.87,1.49l14.28,8.26a1.78,1.78,0,0,0,1.73,0l14.28-8.26a1.69,1.69,0,0,0,.86-1.49v-16.5a1.72,1.72,0,0,0-.86-1.5l-14.28-8.24a1.8,1.8,0,0,0-.87-.23,1.76,1.76,0,0,0-.86.23"/><g class="cls-5"><path class="cls-2" d="M982.72,1320.75,942.47,1301l-20.64,42.11,40.25,19.73Z"/></g><path class="cls-6" d="M951.41,1313.91l-14.28,8.24a1.73,1.73,0,0,0-.87,1.5v16.5a1.7,1.7,0,0,0,.87,1.49l14.28,8.26a1.78,1.78,0,0,0,1.73,0l14.28-8.26a1.69,1.69,0,0,0,.86-1.49v-16.5a1.72,1.72,0,0,0-.86-1.5l-14.28-8.24a1.8,1.8,0,0,0-.87-.23,1.76,1.76,0,0,0-.86.23"/><path class="cls-4" d="M936.62,1341.2a1.46,1.46,0,0,0,.51.44l12.25,7.08,2,1.18a1.75,1.75,0,0,0,1,.22l.34-.06,15.06-27.59a1.82,1.82,0,0,0-.4-.32l-9.35-5.4-5-2.84a1.77,1.77,0,0,0-.45-.18Z"/><g class="cls-7"><path class="cls-2" d="M919.21,1326.59l28.43,38.47,37.59-27.77-28.43-38.47Z"/></g><path class="cls-6" d="M936.62,1341.2a1.46,1.46,0,0,0,.51.44l12.25,7.08,2,1.18a1.75,1.75,0,0,0,1,.22l.34-.06,15.06-27.59a1.82,1.82,0,0,0-.4-.32l-9.35-5.4-5-2.84a1.77,1.77,0,0,0-.45-.18Z"/><path class="cls-4" d="M952.1,1313.69a1.74,1.74,0,0,0-.69.22l-14.24,8.22,15.36,28a1.7,1.7,0,0,0,.61-.21l14.29-8.26a1.7,1.7,0,0,0,.83-1.17l-15.66-26.75a1.34,1.34,0,0,0-.35,0h-.14"/><g class="cls-8"><path class="cls-2" d="M937.17,1313.68v36.43h31.09v-36.43Z"/></g><path class="cls-6" d="M952.1,1313.69a1.74,1.74,0,0,0-.69.22l-14.24,8.22,15.36,28a1.7,1.7,0,0,0,.61-.21l14.29-8.26a1.7,1.7,0,0,0,.83-1.17l-15.66-26.75a1.34,1.34,0,0,0-.35,0h-.14"/></g><g id="vs"><path class="cls-2" d="M658.4,910.89l-37.18,29L605,931.79V856.28l16.15-8.15,36.93,29,58.46-58.52L755,834V953.78l-38.27,15.57Zm57,10.19V866.92l-35,27.11,35,27.05Zm-92.88-9.74,18.4-16.73-18.4-18.33Z"/></g><g id="invision"><path class="cls-2" d="M748.4,370H625.6A13.6,13.6,0,0,0,612,383.6V506.4A13.6,13.6,0,0,0,625.6,520H748.4A13.6,13.6,0,0,0,762,506.4V383.6A13.6,13.6,0,0,0,748.4,370"/><path class="cls-2" d="M662.13,417.19a9,9,0,1,0-9.16-9,9,9,0,0,0,9.16,9m-19,48.36a30.88,30.88,0,0,0-.81,6.78c0,7.95,4.31,13.23,13.48,13.23,7.6,0,13.76-4.51,18.19-11.8l-2.7,10.87h15.09L695,450c2.16-8.76,6.33-13.31,12.67-13.31,5,0,8.08,3.1,8.08,8.22a16.1,16.1,0,0,1-.67,4.85l-4.45,15.9a24.07,24.07,0,0,0-.94,6.74c0,7.55,4.45,13.07,13.74,13.07,8,0,14.29-5.12,17.79-17.38l-5.93-2.29c-3,8.22-5.52,9.7-7.54,9.7s-3.1-1.35-3.1-4a18,18,0,0,1,.67-4.18l4.31-15.49a34.11,34.11,0,0,0,1.49-9.83c0-11.58-7-17.63-15.5-17.63-8,0-16,7.17-20.08,14.72l3-13.55h-23l-3.23,11.93H683l-6.64,26.58c-5.21,11.59-14.79,11.78-16,11.51-2-.45-3.24-1.2-3.24-3.76a25.18,25.18,0,0,1,1-6.17l10.1-40.09h-25.6l-3.23,11.93H650l-6.87,28.08"/></g><g id="test_rail" data-name="test rail"><g id="Page-1"><g id="Artboard-Copy"><g id="Group-2"><rect id="Rectangle-2" class="cls-2" x="612" y="1319.1" width="150" height="31.36" rx="2.09"/><g id="Group"><rect id="Rectangle" class="cls-2" x="730.75" y="1324.06" width="7.6" height="6.06"/><rect id="Rectangle-Copy-2" class="cls-2" x="730.75" y="1332.14" width="7.6" height="6.06"/><rect id="Rectangle-Copy-3" class="cls-2" x="730.75" y="1340.22" width="7.6" height="6.06"/><rect id="Rectangle-Copy-4" class="cls-2" x="740.88" y="1340.22" width="7.6" height="6.06"/><rect id="Rectangle-Copy" class="cls-2" x="740.88" y="1332.14" width="7.6" height="6.06"/><rect id="Rectangle-Copy-5" class="cls-2" x="751.01" y="1340.22" width="7.6" height="6.06"/></g><g id="TestRail" class="cls-9"><text class="cls-10" transform="translate(614.87 1346.27)">T<tspan class="cls-11" x="15.68" y="0">est</tspan></text><text class="cls-12" transform="translate(672.39 1346.27)"></text><text class="cls-13" transform="translate(672.39 1346.27)">Rail</text></g></g></g></g></g><g id="linux"><g id="layer7"><path id="path5266" class="cls-2" d="M1258.21,1379.53a14.62,14.62,0,0,1-6.13-2.45,16.92,16.92,0,0,1-2.79-2.64,16,16,0,0,1-2.56-4.58l-.25-.79-.91,0a48.14,48.14,0,0,1-5-.18c-1.2-.11-2.91-.33-5.58-.71a35.81,35.81,0,0,0-6.6-.6c-3.41,0-5.87.31-12.2,1.5a34.71,34.71,0,0,1-5.32.77l-1,0-.27.54a13.08,13.08,0,0,1-9.06,6.68,23.62,23.62,0,0,1-6.79.34,35.06,35.06,0,0,1-12.33-3.76,27.5,27.5,0,0,0-7-2.57,72.88,72.88,0,0,0-8.52-1.29c-5.54-.64-7.68-1.08-9.68-2a8.06,8.06,0,0,1-3.35-2.86,7.51,7.51,0,0,1-1-4.22,19.4,19.4,0,0,1,1.28-6.53,7.84,7.84,0,0,0,.54-3.64,33,33,0,0,0-.43-3.92c-.57-4-.64-5.32-.34-6.92a9.3,9.3,0,0,1,4.76-6.36,18.62,18.62,0,0,1,3.12-1.32c3.46-1.22,4.48-1.74,5.52-2.8a23.75,23.75,0,0,0,2.4-3,29.69,29.69,0,0,1,2.81-3.48l.66-.69-.12-1a43.84,43.84,0,0,1-.12-6.1,54.24,54.24,0,0,1,4.88-18,120.61,120.61,0,0,1,17-26.67,39,39,0,0,0,4.73-7.28c2.58-5,3.82-9.73,4.37-16.62a54.39,54.39,0,0,0-.23-7.5c-.33-5.26-.38-6.53-.38-9.75a57.83,57.83,0,0,1,.27-6.54c1.17-11.57,6-18.92,14.77-22.37a37,37,0,0,1,14.14-2.22,26.75,26.75,0,0,1,11.72,2.61,19.93,19.93,0,0,1,5.48,3.92c5,5,7.81,12.78,8.62,23.87.22,3,.27,5,.27,11.61,0,7.91,0,8.34.75,11.31,1,4.11,3,8,6.47,12.85,1.31,1.82,3.69,4.86,5.45,7,8.1,9.76,13.49,18.8,16.38,27.49s3.24,17.18,1,24.72c-.17.56-.33,1.07-.35,1.13s.13.17.5.32a10.66,10.66,0,0,1,2.75,1.89c1.42,1.41,2.29,3.21,3,6.31.17.68.49,2,.72,2.94.65,2.67,1.21,4.12,1.94,5.06.18.23.66.81,1.07,1.28,5.53,6.38,6,11,1.58,14.62-1.4,1.13-2.65,1.83-7.52,4.26-2,1-4.1,2.06-4.6,2.34a27.3,27.3,0,0,0-8.07,6.4c-4.53,5.21-9.6,8.38-15.11,9.44a12.78,12.78,0,0,1-2.8.22,17.09,17.09,0,0,1-2.48-.08Zm3.43-2.3a20.08,20.08,0,0,0,9.19-3.51,31.09,31.09,0,0,0,6.55-6,29,29,0,0,1,7.86-6.17c1.12-.64,2.09-1.13,7.42-3.76,3.61-1.77,5.24-2.91,6.12-4.27,1-1.59.74-3.63-.93-6.33a35.87,35.87,0,0,0-3.37-4.37c-1.12-1.3-1.84-3-2.53-5.89-1.12-4.67-1.34-5.42-2-6.72a6.56,6.56,0,0,0-3.14-3.12c-1.3-.62-1.7-.7-4.17-.73l-2.14,0-.77.76a19.77,19.77,0,0,1-9.13,5.08,9.88,9.88,0,0,1-3.76,0,6.8,6.8,0,0,1-3.16-1.82,12.81,12.81,0,0,1-3.43-7.58c-.06-.54-.13-1-.14-1a6.71,6.71,0,0,0-1.63,1,10.34,10.34,0,0,0-3.06,4.88c-1,2.92-1.5,6.61-1.86,13.22-.26,4.78-.41,5.52-2.79,13.61-1.59,5.41-2.16,8.36-2.17,11.23a9.27,9.27,0,0,0,1.18,5.16,12.12,12.12,0,0,0,5.34,5.28,12.33,12.33,0,0,0,6.51,1.06Zm-63.54-2.11a14.14,14.14,0,0,0,6.27-2.13,11.28,11.28,0,0,0,2.39-2.39,11.08,11.08,0,0,0,1.61-4,13.12,13.12,0,0,0,.15-3.55c-.33-2.09-1.7-4.93-3.87-8-.91-1.3-2-2.76-4.46-5.8-3.57-4.47-4.74-6.1-5.77-8-.22-.42-1.94-3.57-3.83-7-3.77-6.89-3.86-7-5.44-8.66a12,12,0,0,0-3.59-2.73,7.87,7.87,0,0,0-5-.6c-1.72.45-3.22,1.73-5.32,4.56a30.38,30.38,0,0,1-3.58,4.42c-1.27,1.21-2.47,1.84-5.49,2.89-3.3,1.15-4.27,1.67-5.37,2.88a6.49,6.49,0,0,0-1.59,3c-.33,1.65-.25,2.83.57,8.1a24.47,24.47,0,0,1,.19,2.53,10.14,10.14,0,0,1-.72,4.56,16.75,16.75,0,0,0-1.12,6,4.58,4.58,0,0,0,1.15,3.23c1.48,1.6,3.83,2.31,9.8,2.95,6.48.71,9,1.15,12.1,2.09a28.42,28.42,0,0,1,4.9,2c1.23.6,2.71,1.27,3.3,1.51a32.18,32.18,0,0,0,8.18,2.11,30.77,30.77,0,0,0,4.49,0Zm29.46-14a40.86,40.86,0,0,0,20-7.13,11.83,11.83,0,0,0,1-.73c.09-.12,1.3-4.35,1.68-5.89a30.86,30.86,0,0,0,.94-7.47c.52-8.91,1.51-13.35,3.74-16.7a13.39,13.39,0,0,1,2.81-2.86,15.18,15.18,0,0,1,2.35-1.21,2.73,2.73,0,0,0,.21-.88,7.25,7.25,0,0,1,1.37-3.51c1.7-2.16,5-2.53,9.54-1a34.44,34.44,0,0,1,7.71,3.82,12.4,12.4,0,0,1,2.46,2.46,4.56,4.56,0,0,1,.58,3.32c-.06.33-.12.61-.12.63a4.26,4.26,0,0,0,.74,0l.73,0,.12-.49c.79-3.1-.69-5.8-4.64-8.45a45,45,0,0,0-5.75-3.13,5.39,5.39,0,0,1-.57-.26,2.07,2.07,0,0,1,.09-.78c1.93-8.88-1.57-19.89-9.24-29.11a38.7,38.7,0,0,0-3.59-3.7.45.45,0,0,0-.33.08c-.4.26-.09.8,1.25,2.18a28.66,28.66,0,0,1,4,5c4.8,7.35,6.65,15.38,5.14,22.23a23.79,23.79,0,0,1-.84,2.78c0,.07-.29,0-1-.1a15.27,15.27,0,0,0-1.92-.25l-1-.05-.1-.52a78.6,78.6,0,0,0-7.81-21.52,156.21,156.21,0,0,1-7.17-15.69,170.69,170.69,0,0,1-6.38-18.76c0-.17-.1-.32-.13-.31a1,1,0,0,0-.26.29,13.07,13.07,0,0,1-1.85,1.9,17.73,17.73,0,0,1-5.52,3,14.51,14.51,0,0,0-3.15,1.59,27.6,27.6,0,0,1-5.72,3.07,14,14,0,0,1-5.67.74,10.5,10.5,0,0,1-4.31-1.19,16.2,16.2,0,0,1-3.49-2.57,19.93,19.93,0,0,0-3.2-2.53c-.46-.28-1.1-.7-1.42-.92-.66-.46-.71-.45-.71.15s-.27,2.71-.46,3.84a65.55,65.55,0,0,1-2.63,10.15,168.15,168.15,0,0,1-7.69,18.58,101.54,101.54,0,0,0-4.61,10.7,60.68,60.68,0,0,0-3.36,16.65,7.3,7.3,0,0,1-.1,1.19,7.68,7.68,0,0,1-.58-.81c-3.8-5.73-4.27-12.94-1.42-21.4a41.9,41.9,0,0,1,2.67-6.22l2.11-4.18a15.09,15.09,0,0,0,1.59-3.76c0-.55-.21-.34-1.07,1.08a77.8,77.8,0,0,0-7.86,16.1c-2.17,6.58-2.4,12.25-.68,16.9a17.37,17.37,0,0,0,4.18,6.44,20.87,20.87,0,0,0,3.79,3.07l2.86,1.88c7.94,5.24,13.06,11,14,15.82a7.58,7.58,0,0,1,0,2.52,4.29,4.29,0,0,1-2.4,2.89,6.6,6.6,0,0,1-2.76.71,3.43,3.43,0,0,0-.85.09s.31.43.69.91c1.21,1.53,2.88,3.79,3.65,4.93l.75,1.11.87.55a31.89,31.89,0,0,0,5.28,2.71,30.45,30.45,0,0,0,9.72,2.11,34.88,34.88,0,0,0,3.66,0Zm-3.58-98.87c2.3-.31,3.93-1,6.82-2.82a20.37,20.37,0,0,1,4.52-2.43c5.09-1.65,8.65-5.36,8.25-8.6a5,5,0,0,0-2.52-3.47,30.44,30.44,0,0,0-5-2.1,20,20,0,0,1-4.77-2.13c-3.31-2-5.79-2.87-8.46-3a10.58,10.58,0,0,0-4.73.84,15.73,15.73,0,0,0-4.74,3.3,33.78,33.78,0,0,1-3.25,2.62c-2.91,2.15-3.28,2.45-3.65,3-1.5,2-.56,4.87,2.41,7.26a20.67,20.67,0,0,0,2.46,1.67,22.27,22.27,0,0,1,3.13,2.48c2.2,2,3.38,2.71,5.24,3.18a12.13,12.13,0,0,0,4.3.22Zm-4-5.25a14.55,14.55,0,0,1-4.79-1.43,20.74,20.74,0,0,1-4.76-3.26c-1.67-1.48-2.33-2.16-2.47-2.58-.24-.72-.08-1.31.32-1.21s.58.32.88.88a9.75,9.75,0,0,0,2.34,2.45,16.38,16.38,0,0,0,7.43,4,8.57,8.57,0,0,0,2.29.17,9.32,9.32,0,0,0,2.53-.2,25.67,25.67,0,0,0,5.92-2.19,31.86,31.86,0,0,0,5.88-3.67,8.42,8.42,0,0,0,2.31-2.06c.47-.62.77-.79,1.2-.7.94.21-.21,1.66-3,3.74a28.52,28.52,0,0,1-5.31,3.19,27.59,27.59,0,0,1-5.59,2.31,14.81,14.81,0,0,1-5.2.52Zm-2.73-14.75c-.5-.2-.47-.68.07-1a4.56,4.56,0,0,1,.89-.39,2.21,2.21,0,0,1,1.08-.17c.5,0,.86.22.9.46s-.25.41-.69.5a3.1,3.1,0,0,0-.93.42c-.56.37-.83.42-1.32.21Zm8.81-.18a3,3,0,0,0-.86-.42c-.57-.15-.77-.29-.77-.52s.07-.22.32-.34a2.85,2.85,0,0,1,2.34.32c.73.39.84.91.24,1.16A1.15,1.15,0,0,1,1226.06,1242Zm-15.49.36c.49-.37.91-.7.93-.74s-.1-.19-.27-.34c-1.17-1.06-1.9-3.34-1.78-5.6.23-4.55,3.42-5.81,5.19-2.06a7.43,7.43,0,0,1,.72,3.39,12.1,12.1,0,0,0,.07,1.3l.38-.22a15,15,0,0,1,2.4-1.1l.75-.26v-1.49a13.09,13.09,0,0,0-.49-3.89c-.89-3.18-2.75-5.54-4.93-6.27a5.09,5.09,0,0,0-2.42-.12,6,6,0,0,0-3,2.2,11.88,11.88,0,0,0-1.93,4.78,19.87,19.87,0,0,0,0,5,12.36,12.36,0,0,0,2.65,5.94l.39.43.24-.16,1.12-.84Zm30.6.23a13.62,13.62,0,0,0,2.33-8.74,12.9,12.9,0,0,0-1.43-5.39,9.64,9.64,0,0,0-4.41-4.62,5.89,5.89,0,0,0-3.17-.71,6.63,6.63,0,0,0-4,1.17,12.42,12.42,0,0,0-2.77,2.74,14.41,14.41,0,0,0-2,5,13,13,0,0,0-.17,2.52c0,.89,0,1.74,0,1.89s.08.28.49.37a28.39,28.39,0,0,1,3.36,1.09l.82.34-.06-.32a13.46,13.46,0,0,1,.07-3,7.84,7.84,0,0,1,.77-2.34,4.58,4.58,0,0,1,2.35-2.38,3,3,0,0,1,2.15.11c1.89.92,3.06,3.93,2.7,7a5.32,5.32,0,0,1-1.39,3.46l-.58.6.21.08,1.37.51c.63.23,1.53.59,2,.79l.89.37a2.8,2.8,0,0,0,.44-.54Z"/><path id="path5272" class="cls-14" d="M1221.06,1360.5c-7.56-1.34-12.17-3.93-15.61-8.77-1.84-2.57-1.91-2.84-.8-2.84a5.87,5.87,0,0,0,2.92-1.45c4.75-4.09-.7-13-13.14-21.38-8.68-5.88-11.51-10.87-10.89-19.23.31-4.07,2.62-12.73,3.24-12.11a23.9,23.9,0,0,1-.74,4.77c-1.21,5.7-.77,10.61,1.35,15.17,1.89,4.06,2.2,3.67,3.21-4.11.8-6.11,2.83-12,8.49-24.53,5-11.13,7.23-17.34,8.66-24.32l1-5.09,3.93,3c4.67,3.58,7.68,4.7,11.29,4.2,2.77-.37,16.21-7,18.21-8.94,1.15-1.12,1.21-1,3.73,6.61,3.41,10.27,4.36,12.58,10.39,25.19a131.58,131.58,0,0,1,6.72,16.48c.88,3.16,1.7,6.09,1.83,6.51s1.2.77,2.38.77c1.82,0,2.22-.26,2.62-1.68.94-3.39.43-11.88-1-15.68-1.68-4.62-1.19-5.23.71-.9a33.63,33.63,0,0,1,3,15l-.08,4.95,3,1.39c5.35,2.51,8.84,6.92,7.59,9.62-.39.85-.54.67-.71-.88-.4-3.59-6.64-7.91-13.53-9.39-2.66-.57-3.43-.5-5.39.45a5.27,5.27,0,0,0-2.9,3,17.55,17.55,0,0,1-3.76,4.88c-3.83,3.7-4.78,6.52-5.72,17.08-.72,8.13-2.15,14.25-3.61,15.42-1.91,1.56-10.8,5.53-13.77,6.17a36.27,36.27,0,0,1-12.66.7Z"/><path id="path5274" class="cls-14" d="M1256.23,1376.35c-2.56-.8-6.11-4.83-6.94-7.9-.78-2.91-.21-6.7,2.46-16.5a90,90,0,0,0,2.39-13.74c.76-8.74,1.4-11.26,3.47-13.72,1.81-2.15,2.67-2.35,2.67-.6s2.18,5.79,4,7.24c3.12,2.45,9.47,1.28,14.06-2.59,1.53-1.29,2.56-1.62,5-1.62,4.56,0,5.87,1.41,7.93,8.54,1.23,4.26,2.34,6.7,4.2,9.16,5.56,7.36,5.06,8.66-5.39,14.08a47.42,47.42,0,0,0-13.18,9.24,54.69,54.69,0,0,1-8.86,7c-3.47,1.76-8.74,2.4-11.84,1.44Z"/><path id="path5276" class="cls-14" d="M1192,1374.47a54,54,0,0,1-9.16-3.08c-5.57-2.39-7.26-2.78-20.94-4.88-5.45-.83-7.19-2.21-7.19-5.66a23,23,0,0,1,.92-5.6c.77-2.52.8-4,.21-8.9-.93-7.84-.24-9.16,6.13-11.81,4.88-2,5.56-2.58,10.32-8.12,3-3.45,3.45-3.78,5.68-3.78,5,0,6.89,1.82,12.91,12.71a130.79,130.79,0,0,0,9.22,14.2c5.51,7.07,8.33,12.09,8.33,14.84a13,13,0,0,1-1.38,4.67c-2.34,4.64-7.91,6.65-15,5.41Z"/><path id="path5296" class="cls-14" d="M1221,1262.18c-1.93-.26-4.61-1.73-7.06-3.89a30.88,30.88,0,0,0-2.77-2.1c-2.91-1.93-4-3-4.82-4.68a3,3,0,0,1-.45-1.89,3,3,0,0,1,.86-2.42,36.66,36.66,0,0,1,2.9-2.32c1.37-1,3.05-2.38,3.74-3a15.44,15.44,0,0,1,5.18-3.46,9.53,9.53,0,0,1,3.77-.64c2.92,0,4.91.65,8.8,2.85a33.32,33.32,0,0,0,6.26,2.72c3.83,1.42,5,2.24,5.85,4a4.35,4.35,0,0,1,0,3.12,9.37,9.37,0,0,1-1.66,2.61,16.53,16.53,0,0,1-6.11,3.78,21.81,21.81,0,0,0-4.13,2.13,42.25,42.25,0,0,1-5.85,2.7,8.77,8.77,0,0,1-4.54.49Zm1.52-5.19c2.46-.25,4.41-.89,7.93-2.64a30.62,30.62,0,0,0,5.7-3.37c2.93-2.21,4.08-3.8,2.75-3.8a.86.86,0,0,0-.72.36l-.85.91a39.79,39.79,0,0,1-5.15,3.78,32.21,32.21,0,0,1-7.72,3.37,9.33,9.33,0,0,1-3.17.32,9.88,9.88,0,0,1-4.75-.9,20.26,20.26,0,0,1-7.31-5.71c-.47-.72-.8-.94-1.19-.79-.14,0-.16.19-.13.7.06.78.35,1.15,2.05,2.67a19.36,19.36,0,0,0,8.07,4.74,10.6,10.6,0,0,0,4.49.36Zm-3.92-14.92a5.32,5.32,0,0,1,1-.44c.41-.09.71-.4.62-.63-.27-.7-2.58-.37-3.2.47-.25.34-.16.62.28.81s.51.2,1.28-.21Zm8.78.21c.3-.13.37-.22.37-.47s-.18-.55-.86-.89a3.43,3.43,0,0,0-2.08-.23c-.63.25-.44.74.38,1a3.41,3.41,0,0,1,.74.34c.61.43.91.49,1.45.27Z"/><path id="path5298" class="cls-14" d="M1216.66,1357.43c-4.12-1.45-8.16-4.11-9.21-6.08-.5-.92-.26-1.44,1.23-2.69,5.06-4.26,1.43-12.84-8.75-20.7l-7.8-6-3.05-2.35,1.22-1.31c.82-.88,1.46-2.94,2-6.19,1-6.84,2.49-11.28,7.75-23.52,5.54-12.88,7.6-18.41,9-24.25l1.07-4.41,1.92,1.44c3.84,2.88,7.29,4.25,10.62,4.22,2.69,0,4.54-.68,11.44-4.08,4.52-2.23,8.37-4,8.54-4s.32.28.32.62c0,1.65,6.07,17,10.76,27.28,2.89,6.31,6.28,14.61,7.53,18.45l2.27,7-2.5,2.59c-6,6.2-9.06,10.58-10.16,14.39-.32,1.12-1,5.61-1.51,10a98.16,98.16,0,0,1-1.85,11.17c-1.07,3.74-2.16,4.58-9.73,7.55-4,1.57-6,2-11,2.15-5.19.2-6.69,0-10.07-1.16Z"/></g></g><g id="jquery"><path class="cls-3" d="M1299,1097.7l6.3,0s-11.71,15.87-12.67,17.16a7.46,7.46,0,0,0-1,1.43,32.47,32.47,0,0,0-1.22,4.5l-5.77,0a23.54,23.54,0,0,0,.86-4.94c0-1.49-.79-3-1.22-4.49s-1-4.5-1-4.5h5.92l.82,3.27,9-12.49"/><path class="cls-3" d="M1287.07,1101c1.16.7,1.87,4.57,1.87,4.57s-6.08.09-9.39.09h-2.86l-3.47,15.12h-5.31s3.3-16.43,4.08-19.41c.25-1,1.73-.8,4.23-.8h4c2.58,0,5.59-.33,6.86.43m-24.73,7.37a3.25,3.25,0,0,0-.56-2.1c-.62-1-1.2-1.18-2.83-1.23-4.62-.15-4.53,3.27-4.53,3.27Zm5-3.92c.68,2.44-.61,8.17-.61,8.17s-6.73-.11-10.42,0c-1.14,0-2.52-.12-2.86.41-.48.75.18,1.9.73,2.38a4.57,4.57,0,0,0,2.34.68,77.29,77.29,0,0,0,9.25.1l-1.08,4.81s-8.85.44-13.28-.62a4.54,4.54,0,0,1-2.25-1.22c-.15-.17-.28-.39-.42-.58a5,5,0,0,1-.6-1.06c-1-2.69.12-7.85,1.23-10.62.13-.32.29-.73.46-1.07s.39-.92.56-1.18.25-.29.37-.46.3-.39.45-.56a7.9,7.9,0,0,1,1.43-1.22,13.49,13.49,0,0,1,9.19-2c1.51.16,3.79.7,4.9,2.25a6.63,6.63,0,0,1,.61,1.84Zm-24.36-3.9,5.15,0s-2.87,13.62-4.33,20.26h-5.92c-4.15,0-7.83.51-9.4-2.46s-.07-7.61.61-10.82c.48-2.28,1.5-6.93,1.5-6.93l5.33,0s-1.5,7.24-2.13,10.86c-.22,1.29-.69,2.51-.2,3.47s1.1,1,3.06,1c.62,0,2.66,0,2.66,0l3.67-15.32m-24.1,9.81c.54-1.92,1.32-4,1.22-5.72a4.89,4.89,0,0,0-2.65-3.88,6.8,6.8,0,0,0-7,1.63c-1.45,1.57-1.94,3.4-2.45,5.93-.38,1.87-.69,3.85,0,5.31,1.23,2.58,5.06,2,9.19,2,.62-1.64,1.12-3.49,1.64-5.31Zm7.15-7.56c.59,4.28-1.67,9-3.23,13.1,1.59.15,3,0,3.08.1s-1.06,4.9-1.47,4.91c-1.26,0-5.43.07-7.17.07-5.67,0-11,.37-13.68-2.45a9,9,0,0,1-2-4.5,19.08,19.08,0,0,1,.62-6.94,20.73,20.73,0,0,1,2-5.31c2.38-4.16,6.53-7.25,13.48-6.54a13,13,0,0,1,4.5,1.43c.08,0,.37.28.44.32a9,9,0,0,1,3.44,5.81Zm-25.1-2.22c-.35,1.56-.69,3.33-1,4.87h-5.72c.44-1.71.78-3.41,1.22-4.9,1.83,0,3.54,0,5.55,0m-7,6.3h5.52c-.72,4-2.15,10.44-3.27,14.92-.7,2.8-1.17,4.85-3.06,6.33-.17.13-.27.07-.41.2a7.75,7.75,0,0,1-2.86.82,42,42,0,0,1-4.89,0c.47-1.71,1-3.77,1.42-5.3,4.35.53,4.46-3.59,5.31-7.56.49-2.29,2-8.48,2.24-9.4"/><path class="cls-3" d="M1181.08,1117.34l-.11.31a11.56,11.56,0,0,1-10.68,6.43,15,15,0,0,1-6.13-1.22,15.87,15.87,0,0,1-7.35-6.95c-2.11-4.08-2.49-9.75,1.89-14,.07,0-.53.92-.46.92l-.12.39c-3.16,9.88,6.57,18.35,16,17.38a12.38,12.38,0,0,0,6.94-3.27"/><path class="cls-3" d="M1175.36,1113.26a9.09,9.09,0,0,0,6.34-2.66c-1.29,3.27-5,5.37-10,4.7-4.19-.56-8.17-4.77-8.58-9-.3-3.07.77-4.9,2.53-7.12a7.58,7.58,0,0,0-.9,2.63c-.67,6.64,5.31,11.4,10.62,11.44"/><path class="cls-3" d="M1181.46,1105a7.45,7.45,0,0,1-3.44,2.65,6.54,6.54,0,0,1-7.35-3,8.54,8.54,0,0,1-.59-1.33c-.49-1.65-.27-4.14,1.18-5.43a6.74,6.74,0,0,0-.27,3.58,8,8,0,0,0,1,2.15,5.71,5.71,0,0,0,2.25,2,6.58,6.58,0,0,0,1.13.54c.94.27,2.92,1,6.11-1.17"/></g><g id="react"><path class="cls-2" d="M1155.44,893.33c0,11.33,11.06,21.9,28.5,27.87-3.48,17.53-.62,31.66,8.92,37.16,9.82,5.66,24.44,1.75,38.31-10.38,13.53,11.64,27.2,16.22,36.74,10.7,9.8-5.68,12.78-20.77,9.21-38.85,18.16-6,28.32-15,28.32-26.5,0-11.06-11.08-20.64-28.29-26.56,3.86-18.83.59-32.61-9.35-38.35-9.59-5.52-23.42-.71-37.14,11.24-14.28-12.68-28-16.55-37.9-10.8-9.58,5.54-12.31,19.93-8.82,37.79C1167.09,872.52,1155.44,882.31,1155.44,893.33Z"/><path class="cls-2" d="M1273.51,872.65q-2.13-.72-4.29-1.35c.24-1,.46-1.94.66-2.92,3.25-15.76,1.13-28.46-6.12-32.63-7-4-18.31.17-29.79,10.16-1.13,1-2.24,2-3.32,3-.72-.69-1.46-1.37-2.21-2-12-10.68-24.08-15.18-31.33-11-6.94,4-9,16-6.07,30.89.29,1.48.62,3,1,4.41-1.7.48-3.35,1-4.93,1.55-14.1,4.92-23.11,12.62-23.11,20.62,0,8.25,9.67,16.53,24.36,21.55,1.19.41,2.39.78,3.6,1.13-.39,1.57-.74,3.16-1,4.76-2.79,14.67-.61,26.32,6.31,30.32,7.15,4.12,19.16-.12,30.84-10.34.93-.8,1.86-1.66,2.78-2.56q1.76,1.69,3.61,3.29c11.32,9.74,22.5,13.67,29.42,9.67,7.14-4.14,9.46-16.65,6.45-31.88-.23-1.17-.5-2.35-.8-3.56.84-.25,1.67-.51,2.48-.78,15.27-5.06,25.21-13.24,25.21-21.6,0-8-9.3-15.78-23.69-20.74Z"/><path class="cls-2" d="M1270.2,909.59c-.73.24-1.48.47-2.24.7a133.57,133.57,0,0,0-6.75-16.88,132.61,132.61,0,0,0,6.49-16.63c1.36.4,2.68.81,4,1.25,12.33,4.25,19.84,10.52,19.84,15.36,0,5.15-8.12,11.83-21.3,16.2Zm-5.47,10.84c1.33,6.74,1.52,12.82.64,17.58-.8,4.28-2.39,7.13-4.36,8.27-4.2,2.43-13.18-.73-22.86-9.06q-1.67-1.43-3.35-3.05A134.52,134.52,0,0,0,1246,920a133.66,133.66,0,0,0,18-2.78c.27,1.1.51,2.17.72,3.22Zm-55.33,25.43c-4.1,1.45-7.37,1.49-9.35.35-4.2-2.42-5.94-11.77-3.56-24.32.28-1.49.61-3,1-4.43a132.93,132.93,0,0,0,18,2.6,138.24,138.24,0,0,0,11.44,14.13c-.83.8-1.68,1.58-2.54,2.34-5.17,4.52-10.35,7.72-14.91,9.33Zm-19.22-36.3c-6.49-2.22-11.86-5.11-15.54-8.26-3.3-2.83-5-5.63-5-7.91,0-4.85,7.23-11,19.3-15.25q2.27-.78,4.58-1.44a138.24,138.24,0,0,0,6.49,16.82,138.51,138.51,0,0,0-6.57,17.07C1192.37,910.27,1191.27,909.93,1190.18,909.56Zm6.44-43.85c-2.5-12.79-.84-22.44,3.35-24.86,4.45-2.58,14.31,1.09,24.69,10.32.67.59,1.33,1.2,2,1.84a136.93,136.93,0,0,0-11.34,14,140.37,140.37,0,0,0-17.78,2.77c-.34-1.36-.65-2.73-.92-4.11Zm57.47,14.19q-2-3.37-4.06-6.66c4.26.54,8.33,1.25,12.15,2.12-1.15,3.68-2.58,7.53-4.26,11.47q-1.85-3.5-3.83-6.93Zm-23.44-22.82a119.42,119.42,0,0,1,7.84,9.46c-5.24-.25-10.5-.25-15.74,0,2.59-3.41,5.24-6.59,7.9-9.46Zm-23.58,22.86c-1.31,2.27-2.56,4.56-3.76,6.89a121.65,121.65,0,0,1-4.23-11.53c3.8-.85,7.85-1.54,12.07-2.07Q1209,876.53,1207.07,879.94Zm4.2,34a121.16,121.16,0,0,1-12.27-2,125.12,125.12,0,0,1,4.32-11.76q1.8,3.49,3.77,6.9C1208.43,909.42,1209.83,911.7,1211.27,914Zm19.54,16.15c-2.7-2.91-5.39-6.13-8-9.6q3.84.15,7.8.15c2.71,0,5.4-.06,8-.17A120.37,120.37,0,0,1,1230.81,930.1ZM1258,900a122.72,122.72,0,0,1,4.48,11.72,122.55,122.55,0,0,1-12.43,2.12q2.12-3.36,4.09-6.78T1258,900Zm-8.79,4.21q-3,5.26-6.39,10.32c-4,.28-8,.42-12.2.42s-8.18-.12-12.06-.38q-3.45-5-6.51-10.32t-5.69-10.74Q1209,888,1212,882.78h0q3-5.25,6.46-10.28c4-.3,8-.45,12.13-.45s8.19.15,12.15.46q3.39,5,6.42,10.24t5.74,10.69q-2.67,5.49-5.72,10.78Zm11.74-63.54c4.46,2.57,6.19,12.94,3.39,26.55-.18.88-.38,1.77-.6,2.65a135.47,135.47,0,0,0-17.81-2.82,133.23,133.23,0,0,0-11.26-14c1-1,2-1.9,3.06-2.81,9.84-8.56,19-11.94,23.22-9.52Z"/><path class="cls-2" d="M1230.59,881.49a11.9,11.9,0,1,1-11.9,11.9,11.89,11.89,0,0,1,11.9-11.9"/></g><g id="c_" data-name="c++"><path class="cls-2" d="M1028.09,919.37A13.21,13.21,0,0,0,1030,913V841.37a13.21,13.21,0,0,0-1.91-6.39L955,877.17Z"/><path class="cls-2" d="M961.5,960l62-35.8a13.38,13.38,0,0,0,4.59-4.86L955,877.17l-73.09,42.2a13.38,13.38,0,0,0,4.59,4.86l62,35.8A14.45,14.45,0,0,0,961.5,960Z"/><path class="cls-2" d="M1028.09,835a13.35,13.35,0,0,0-4.59-4.85l-62-35.8a14.45,14.45,0,0,0-13,0l-62,35.8a14.41,14.41,0,0,0-6.5,11.25V913a13.21,13.21,0,0,0,1.91,6.39L955,877.17Z"/><path class="cls-2" d="M955,927.17a50,50,0,1,1,43.3-75l-21.64,12.52a25,25,0,1,0,0,25l21.64,12.52A50.18,50.18,0,0,1,955,927.17Z"/><polygon class="cls-2" points="1005 874.4 999.44 874.4 999.44 868.84 993.89 868.84 993.89 874.4 988.33 874.4 988.33 879.95 993.89 879.95 993.89 885.51 999.44 885.51 999.44 879.95 1005 879.95 1005 874.4"/><polygon class="cls-2" points="1025.83 874.4 1020.28 874.4 1020.28 868.84 1014.72 868.84 1014.72 874.4 1009.17 874.4 1009.17 879.95 1014.72 879.95 1014.72 885.51 1020.28 885.51 1020.28 879.95 1025.83 879.95 1025.83 874.4"/></g><g id="github"><path class="cls-3" d="M934,374.19a75,75,0,0,0-23.72,146.16c3.75.66,5.16-1.59,5.16-3.56,0-1.78-.09-7.69-.09-14-18.84,3.47-23.71-4.6-25.22-8.82-.85-2.15-4.5-8.82-7.69-10.59-2.62-1.41-6.37-4.88-.09-5,5.9-.08,10.12,5.44,11.53,7.69,6.75,11.34,17.53,8.16,21.84,6.19.66-4.88,2.62-8.16,4.77-10-16.68-1.87-34.13-8.35-34.13-37a29.15,29.15,0,0,1,7.69-20.16c-.74-1.87-3.37-9.56.75-19.87,0,0,6.28-2,20.63,7.69a70.48,70.48,0,0,1,37.5,0c14.34-9.76,20.62-7.69,20.62-7.69,4.13,10.31,1.49,18,.75,19.87A29.08,29.08,0,0,1,982,445.25c0,28.78-17.54,35.16-34.22,37,2.72,2.35,5.07,6.84,5.07,13.87,0,10-.09,18.09-.09,20.63,0,2,1.41,4.31,5.16,3.56A75,75,0,0,0,934,374.19Z"/></g><g id="bitbucket"><path class="cls-2" d="M1226.5,344.79c-41.18,0-75,11-75,25,0,3.68,8.82,55.89,12.5,76.47,1.47,9.56,25.74,22.8,62.5,22.8s60.29-13.24,62.5-22.8c3.68-20.58,12.5-72.79,12.5-76.47C1300.77,355.82,1267.68,344.79,1226.5,344.79Zm0,107.36A23.53,23.53,0,1,1,1250,428.62,23.69,23.69,0,0,1,1226.5,452.15Zm0-75c-26.47,0-47.79-4.42-47.79-10.3s21.32-10.29,47.79-10.29,47.79,4.41,47.79,10.29S1253,377.15,1226.5,377.15Z"/><path class="cls-2" d="M1280.77,466.12a3.25,3.25,0,0,0-2.21.73s-18.38,14.71-51.47,14.71-51.47-14.71-51.47-14.71a7.43,7.43,0,0,0-2.21-.73,2.69,2.69,0,0,0-2.94,2.94v.73c2.94,15.45,5.15,26.47,5.15,27.95,2.21,11,24.27,19.85,50.74,19.85s48.53-8.82,50.73-19.85c0-1.48,2.21-12.5,5.15-27.95v-.73c.73-1.47,0-2.94-1.47-2.94Z"/><circle class="cls-2" cx="1226.5" cy="427.88" r="11.76"/></g><g id="sql"><path class="cls-2" d="M721.7,1530.48l-16.57,5.41-14.41,6.36-4,1.06c-1,1-2.11,2-3.27,3s-2.47,2.1-3.38,2.83a25.21,25.21,0,0,0-3.28,3.25,14.91,14.91,0,0,0-2.43,4.11,6.89,6.89,0,0,0,1,6.2c1.7,2.5,5.09,5.06,9.05,6.8a56.63,56.63,0,0,0,8,2.66,104.6,104.6,0,0,0,17,2.42,18.27,18.27,0,0,0,2.19,0,30,30,0,0,0,1.62-3.07A77.57,77.57,0,0,0,719,1556a74.35,74.35,0,0,0,1.5-10.77c.09-1.22.13-5.29,0-6.66a46.85,46.85,0,0,0-.62-5.88,1.26,1.26,0,0,1,0-.51,19.88,19.88,0,0,1,2.24-.68l-.41-1Zm-3.78,2.21a40.73,40.73,0,0,1,.65,6.28,3.12,3.12,0,0,1,0,.85c-.1,0-2.11-1.19-3.55-2.09-1.25-.79-3.63-2.37-4-2.67-.12-.09-.11-.1.92-.45C713.65,1534,717.78,1532.69,717.92,1532.69Zm-8.44,2.78a4.5,4.5,0,0,1,1.09.59,75.64,75.64,0,0,0,7.58,4.22c.47.2.52.13-.55.85a54,54,0,0,1-8.6,4.62c-.61.28-1.13.49-1.14.49a3.75,3.75,0,0,1,.15-.69,36.6,36.6,0,0,0,1.34-8.8c0-1.25,0-1.25.13-1.29s0,0,0,0Zm-1.74.67a28,28,0,0,1-.08,3.64,32,32,0,0,1-1.15,5.45,7,7,0,0,1-.29.87,21.8,21.8,0,0,1-2.33-2.26,17.22,17.22,0,0,1-2.3-3.36,9.89,9.89,0,0,1-.7-1.7c.2-.14,6.8-2.69,6.85-2.64Zm-8.19,3.21s0,0,0,0a1.6,1.6,0,0,1,.19.45,16.83,16.83,0,0,0,2.08,3.72,21.28,21.28,0,0,0,2.89,3.11l.62.53c.07.08.1.06-1.94.84-2.37.9-4.95,1.8-7.9,2.75l-2.12.69c-.11,0-.08,0,.25-.54a71.63,71.63,0,0,0,5-10c.21-.55.42-1.1.46-1.23a.47.47,0,0,1,.27-.33l.22-.05Zm-2.51,1a27.36,27.36,0,0,1-1.22,2.6c-1.22,2.36-2.55,4.69-4.32,7.52-.3.49-.59.94-.63,1s-.09.06-.29-.33a10.15,10.15,0,0,1-.9-6.63c.16-.78.15-.77.53-1,1.6-.82,6.78-3.25,6.83-3.2Zm21.6.88v.53a67.79,67.79,0,0,1-.74,9.41c-.07.49-.14.89-.15.9l-.79-.22a32.23,32.23,0,0,1-5.76-2.47,25.63,25.63,0,0,1-2.93-1.8l1.16-.61a77.45,77.45,0,0,0,6.85-4c.76-.52,1.91-1.34,2.16-1.57l.2-.15Zm-31,3.71s0,.1,0,.55-.11.92-.14,1.34a9.18,9.18,0,0,0,1.11,5,7.6,7.6,0,0,1,.43.95c-.08.08-8.37,2.51-11,3.22l-1.5.41c-.09,0-.1,0-.06-.2a13.19,13.19,0,0,1,3.64-6.27,16.32,16.32,0,0,1,4.12-3.16c1.28-.72,3.24-1.81,3.39-1.86Zm19.53,3.49a5.4,5.4,0,0,1,.68.36,37.14,37.14,0,0,0,9.59,3.73l.29.07-.4.22a137.73,137.73,0,0,1-12.74,5.3l-1.76.66a1.15,1.15,0,0,1-.29.09s.22-.45.51-1a61.18,61.18,0,0,0,4-9c.1-.23.16-.45.17-.46Zm-2,.65a4.6,4.6,0,0,1-.21.58,79.3,79.3,0,0,1-4.35,8.75c-.46.83-.85,1.49-.86,1.49l-.84-.5a25.9,25.9,0,0,1-6.55-5.57l-.22-.28,1.14-.31a82.07,82.07,0,0,0,11-3.8Zm12.37,4.32h0a48.05,48.05,0,0,1-1.15,4.73c-.44,1.57-.81,2.8-1.5,5-.3.95-.57,1.74-.58,1.74l-.16,0a52.7,52.7,0,0,1-10.18-2.87c-.88-.35-2.13-.92-2.2-1a16.16,16.16,0,0,1,1.67-.79c5.7-2.49,11.61-5.32,13.64-6.53a1.73,1.73,0,0,1,.46-.23Zm-28.56,1s-1.56,2.31-3.79,5.43l-2,2.84c-.34.48-.85,1.23-1.14,1.68l-.52.82-.57-.48a21.78,21.78,0,0,1-2.33-2.38,10.38,10.38,0,0,1-2.09-4c-.13-.6-.13-.91,0-.94l6.66-1.57c1.74-.4,3.76-.87,4.48-1l1.33-.31Zm1.6.61.41.45a23.3,23.3,0,0,0,5.87,4.81,3.29,3.29,0,0,1,.67.44c-.08.06-7.73,2.78-11.28,4-2,.71-3.63,1.27-3.64,1.27l-.25-.16-.23-.17.37-.52c1.17-1.7,2.65-3.57,5.87-7.45l2.21-2.67Zm10,7.15s.56.19,1.24.44a40.39,40.39,0,0,0,4.64,1.44,51.11,51.11,0,0,0,7,1.21c.27,0,.42,0,.37.09s-1.93.66-3.28,1.09c-2.15.68-8.73,2.62-14.09,4.16l-1.89.54a1,1,0,0,1-.53-.14,7.79,7.79,0,0,1,.66-.84,74.2,74.2,0,0,0,5.08-6.84l.77-1.15Zm-2.21.06s-.87,1.44-2.43,3.9l-1.66,2.63-.84,1.37-.36.64-.19,0c-.45-.12-3.62-1.24-4.46-1.58a31.55,31.55,0,0,1-2.92-1.33,11.81,11.81,0,0,1-2.15-1.37l3.81-1c5.48-1.49,8.52-2.35,10.51-3a7.15,7.15,0,0,1,.69-.19Zm15.59,3.66h0c.05.12-2,5.76-2.71,7.54-.17.4-.23.5-.32.49l-4.94-.69c-3.12-.48-8.35-1.39-9.67-1.69l-.3-.07,1.87-.42c4-.9,5.93-1.39,7.88-2a54.61,54.61,0,0,0,7.38-2.85,6.09,6.09,0,0,1,.8-.32Z"/><path class="cls-2" d="M704.62,1491.86c-.28,0-4.72,1.57-7.59,2.73a47.9,47.9,0,0,0-8.73,4.38,6.79,6.79,0,0,0-1.69,1.69,1.21,1.21,0,0,0-.07.43l1.68,1.59,4,1.28,9.5,1.7,10.87,1.87.11-.94-.1,0-1.42-.22-.29-.51c-1.48-2.61-3.11-5.84-4.06-8a41.58,41.58,0,0,1-1.83-5c-.21-.85-.23-.9-.37-.92Zm-.2.64h0s.06.36.11.78a26.3,26.3,0,0,0,1.22,5.27c.46,1.38.46,1.3-.08,1.14-1.27-.35-7-1.34-11.14-1.92-.66-.09-1.23-.17-1.23-.19s3-1.64,4.33-2.26c1.72-.79,6.43-2.76,6.78-2.82Zm-12.07,5.61.49.16a74.52,74.52,0,0,0,13,2.48l.77.08a6.32,6.32,0,0,1-.79.41c-1.78.89-3.73,2-5.08,2.82a5.2,5.2,0,0,1-.81.45l-.59-.09-.5-.07-1.26-1.23c-2.2-2.14-3.93-3.79-4.59-4.42Zm-.5.39,1.76,2.2c1,1.22,1.94,2.41,2.16,2.67a4.22,4.22,0,0,1,.37.49s-2.55-.45-3.88-.75-1.93-.47-2.77-.73l-.69-.23V1502c0-.84,1.08-2.09,2.88-3.37l.17-.11Zm15,3s.11.12.26.45c.43.94,1.75,3.47,2.08,4,.1.16.27.18-1.49-.11-4.25-.69-5.61-.92-5.61-.94a1.29,1.29,0,0,1,.29-.19,24.33,24.33,0,0,0,3.82-2.64l.6-.5s0,0,.05,0Z"/><path class="cls-2" d="M686.7,1500.49a1.27,1.27,0,0,0,0,1.09,4.88,4.88,0,0,0,1.18,1.39s5.57,5.43,6.24,6.21a17.44,17.44,0,0,1,4.55,11.89,19.41,19.41,0,0,1-2,9c-2.6,5.68-8.1,12-16.58,18.92l1.24-.42a39.25,39.25,0,0,1,4.45-2.64,157.31,157.31,0,0,1,20.67-9.25c11.72-4.41,31-9.57,42-11.25l1.14-.17-.18-.28a38.31,38.31,0,0,0-2.52-3.54,30,30,0,0,0-8.89-7.4c-4.9-2.74-11.25-4.88-19.29-6.47-1.52-.3-4.85-.88-7.55-1.29-5.74-.89-9.44-1.51-13.52-2.21-1.47-.25-3.66-.62-5.11-.94a33.84,33.84,0,0,1-3.32-.88c-.9-.36-2.2-.71-2.48-1.77Zm3.23,3.13a3.91,3.91,0,0,1,.48.15c.47.16,1.09.35,1.81.55l1.66.44,1.38.36c.09.09,1.36,4.13,1.78,5.69.17.59.29,1.09.28,1.09a2.72,2.72,0,0,1-.31-.49,26.11,26.11,0,0,0-6.47-7.3,5.32,5.32,0,0,1-.61-.49Zm6.16,1.7a4.76,4.76,0,0,1,.68.12c2.13.47,5.94,1.2,8.39,1.61a3.37,3.37,0,0,1,.74.16,1.24,1.24,0,0,1-.34.22c-.42.21-2.08,1.2-2.63,1.57a24.86,24.86,0,0,0-3.55,2.83l-.67.67a4.61,4.61,0,0,1-.14-.48,40.42,40.42,0,0,0-2.24-6.13,4.56,4.56,0,0,1-.25-.58s0,0,0,0Zm10.84,2.07a4.71,4.71,0,0,1,.46,1.39,20.76,20.76,0,0,1,.6,5.73,10.08,10.08,0,0,1-.08,1.08l0,.13-.65-.22c-1.34-.42-3.52-1.06-5.38-1.59-1.07-.29-1.93-.55-1.93-.57a27.91,27.91,0,0,1,2.22-2.22,58.48,58.48,0,0,1,4.8-3.73Zm.87.12s5.18.86,7.52,1.31c1.74.33,4.27.86,4.42.92s-.18.18-1,.55a53.85,53.85,0,0,0-8.2,4.46c-.64.43-1.18.78-1.19.78a5,5,0,0,1,0-.8,17.47,17.47,0,0,0-1.35-6.82A1.75,1.75,0,0,1,707.8,1507.51Zm13.31,2.63a9.37,9.37,0,0,1-.28,1.66,31.3,31.3,0,0,1-3.15,7.23,7.17,7.17,0,0,1-.53.85,4.4,4.4,0,0,1-.75-.4,40.14,40.14,0,0,0-4.91-2.4c-.5-.21-.94-.39-1-.41a70.62,70.62,0,0,1,6.07-4c1.69-1,4.45-2.56,4.5-2.51Zm.95.15c.11,0,2.39.63,3.58,1a75.51,75.51,0,0,1,8.53,3.12l.91.41-.64.15a93.59,93.59,0,0,0-14.43,4.47c-.37.15-.69.28-.72.28a3.38,3.38,0,0,1,.27-.64,25.25,25.25,0,0,0,2.41-8.34c0-.24,0-.43.09-.43Zm-22.69,5.21s1.78.38,2.72.64c1.43.4,4.46,1.42,4.46,1.49l-.74.65c-1.64,1.37-3.22,2.81-5.11,4.63-.56.54-1,1-1.07,1s0-.07,0-.17a27.78,27.78,0,0,0-.18-7.55C699.4,1515.82,699.36,1515.51,699.37,1515.5Zm36.58,0s-.81,1.33-1.33,2.07c-.75,1.07-1.85,2.5-4.35,5.63l-3.28,4.14c-.5.63-.91,1.16-.92,1.16a3.34,3.34,0,0,1-.35-.5,25.68,25.68,0,0,0-5.08-5.6c-.37-.31-.78-.65-.92-.75a1,1,0,0,1-.25-.22s2.13-1,3.74-1.6c2.83-1.15,6.69-2.53,9.58-3.42,1.52-.47,3.13-.94,3.16-.91Zm1,.25a3,3,0,0,1,.71.35,41.93,41.93,0,0,1,8.38,6.29c.66.65,2.3,2.35,2.28,2.36l-1.25.1a124.12,124.12,0,0,0-18.51,3.08l-.85.19a14.94,14.94,0,0,1,1.08-1.08,32.13,32.13,0,0,0,7.6-10.11c.28-.62.53-1.14.56-1.18ZM709,1518.65c.17,0,1.8.8,3,1.41s2.81,1.46,2.9,1.54-.59.33-1.33.69c-2.35,1.18-4.37,2.29-6.47,3.57l-1.11.66s0,0,.3-.66a26.74,26.74,0,0,0,2.54-6.9c.05-.19.1-.31.14-.31Zm-1.63.3a24.64,24.64,0,0,1-.65,2.41,31.66,31.66,0,0,1-2.22,5.09c-.2.35-.5.86-.66,1.15l-.32.5-.7-.68a9,9,0,0,0-2.33-1.71,4.84,4.84,0,0,1-.6-.35c0-.1,2.14-2,3.78-3.45,1.18-1,3.66-3,3.7-3Zm10,4.09.62.4a48.61,48.61,0,0,1,4.32,3.19c.71.59,2.09,1.83,2.36,2.13l.15.16-1,.29c-5.74,1.59-10.17,3-15.34,4.91-.58.21-1.06.39-1.1.39s-.14.06,1.15-1.13a54.57,54.57,0,0,0,8.41-9.66l.44-.68Zm-2.61.65s-1.7,2.44-2.72,3.81c-1.23,1.63-3.41,4.35-4.91,6.13-.63.74-1.16,1.35-1.19,1.37s0-.18,0-.47a10.54,10.54,0,0,0-1.06-4.5c-.29-.58-.34-.72-.28-.78.24-.21,3.88-2.29,6.19-3.53,1.55-.83,4-2,4-2Zm-15.83,3.88a5.33,5.33,0,0,1,.65.33,13.69,13.69,0,0,1,2.15,1.45,3.32,3.32,0,0,1-.72.6c-1.19.85-3,2.22-4,3.06s-1.14.9-1,.71a22.84,22.84,0,0,0,1.68-2.89,26.5,26.5,0,0,0,1-2.62,2,2,0,0,1,.25-.64Zm4.22,3.31c.06,0,.14.1.47.6a9,9,0,0,1,1.41,3.64l0,.25-1.71.67c-3.07,1.19-5.9,2.36-7.82,3.24l-2.09,1c-.61.31-1.11.55-1.11.54l.86-.65a50.47,50.47,0,0,0,9.42-8.68c.26-.31.5-.6.52-.61Zm-1.94.47a26.32,26.32,0,0,1-2.36,2.66,41.53,41.53,0,0,1-7.77,6.27c-.38.24-.72.45-.75.48s0-.08,1.32-1.49a32.12,32.12,0,0,0,2.17-2.57,4.32,4.32,0,0,1,1.25-1.19C696.89,1534.18,701.14,1531.3,701.19,1531.35Z"/><path class="cls-2" d="M647,1583.2l-.69,0c-4.67.25-7.82,2.3-9.65,6.31a16.62,16.62,0,0,0,0,12c1.65,3.56,4.32,5.44,8.77,6.15.94.16,1.58.68,3.4,2.81l2.24,2.63h4.07l-2.7-2.73a28.14,28.14,0,0,1-2.71-2.92c0-.11.57-.36,1.27-.57a9.29,9.29,0,0,0,5.5-5.16,10.89,10.89,0,0,0,1.39-5.55c.4-8-3.84-13.07-10.9-13Zm3.57,21a9.58,9.58,0,0,1-6.74.46,8.63,8.63,0,0,1-4.66-5c-.94-2.49-.81-7.1.27-9.17,1.72-3.3,4-4.82,7.35-4.82,5,0,7.76,3,8.13,8.73.29,4.76-1.3,8.33-4.35,9.81Zm70.32-14.16a4.35,4.35,0,0,0-3.89,2l-.69,1.08v-2.8h-3v16.81h2.95v-5.37c0-4.92.06-5.49.75-6.84,1-1.84,2.58-2.76,4.15-2.32l1.06.31v-2.92Zm-17.36-.15a8.25,8.25,0,0,0-1.81.21,8.44,8.44,0,0,0-6,8.71c0,3.26.63,4.89,2.2,6.6,3.23,2.65,6.14,2.86,10.08,1.44l1.4-.62v-2.64l-1.4.72c-3.19,1.39-5.58,1.39-7.51-.24a7.63,7.63,0,0,1-2-4.45h11.92v-2.27c0-4.62-2.78-7.54-6.83-7.46Zm-4.82,7.37s.44-2.89,2.07-4a4.5,4.5,0,0,1,2.57-.82,4.16,4.16,0,0,1,2.5.84c1.49,1.15,1.75,4,1.75,4h-8.89v0Zm-71.25-3c-3.2-1.94-4.62-3.34-4.45-5,.5-4.56,6.14-3.93,9.27-2.2l0-3.07a12.06,12.06,0,0,0-4.21-.79c-3.79-.06-6.25,1.19-7.4,3.72-1.69,3.74-.19,6.56,5.22,9.71,3,1.77,4.37,3.3,4.37,5,0,3.46-4.16,4.66-8.46,2.5-.88-.44-1.63-.81-1.67-.81a27.69,27.69,0,0,0-.08,3.32,17.92,17.92,0,0,0,3.31.94c4.91,1,9.38-1.33,9.8-5.07.37-3.51-.9-5.35-5.72-8.23ZM747,1589.88a9.26,9.26,0,0,0-1.83.21,8.41,8.41,0,0,0-6,8.71c0,3.26.63,4.88,2.2,6.58,3.23,2.65,6.14,2.86,10.1,1.44l1.39-.61v-2.65l-1.4.73c-3.19,1.38-5.59,1.38-7.5-.25a7.48,7.48,0,0,1-2-4.45h11.9v-2.27c0-4.6-2.78-7.52-6.83-7.44Zm-4.82,7.37s.44-2.88,2.07-4a4.44,4.44,0,0,1,2.57-.83,4.13,4.13,0,0,1,2.5.85c1.49,1.15,1.74,4,1.74,4H742.2v0Zm-54.17-3c-3.2-1.93-4.62-3.34-4.45-5,.5-4.57,6.14-3.93,9.26-2.21l0-3.07a11.93,11.93,0,0,0-4.21-.78c-3.8-.06-6.25,1.19-7.4,3.72-1.69,3.74-.18,6.56,5.22,9.71,3,1.77,4.37,3.28,4.37,4.95,0,3.46-4.16,4.68-8.46,2.5-.88-.44-1.63-.81-1.67-.81a25.66,25.66,0,0,0-.08,3.32,19.81,19.81,0,0,0,3.28.94c4.92,1,9.39-1.32,9.81-5.06.36-3.49-.9-5.34-5.7-8.21Zm76.35-4.26a4.32,4.32,0,0,0-3.89,2.06l-.7,1.07v-2.8h-2.95v16.81h2.95v-5.38c0-4.91.06-5.48.75-6.83,1-1.84,2.58-2.76,4.15-2.32l1.06.31V1590Zm-99.85,4.17v-10.71h-3v23.71h12.53v-2.8h-9.55v-10.2Zm68.9,3.33-2.46,6.39-2.36-6.42-2.4-7.12h-3c2,5.6,4.12,11.3,6.29,16.82.94,0,1.88,0,2.82,0l3.32-8.32,3.37-8.5h-2.91s-1.29,3.38-2.63,7.16Zm-62-20.51a1.63,1.63,0,0,0,1.21-.48,1.6,1.6,0,0,0,.5-1.19,1.57,1.57,0,0,0-.5-1.19,1.77,1.77,0,0,0-2.4,0,1.6,1.6,0,0,0-.47,1.19,1.58,1.58,0,0,0,.47,1.19,1.61,1.61,0,0,0,1.19.46Zm-1-2.72a1.51,1.51,0,0,1,2.57,1,1.49,1.49,0,0,1-.44,1.08,1.46,1.46,0,0,1-1.05.42,1.41,1.41,0,0,1-1.06-.42,1.49,1.49,0,0,1-.44-1.08A1.39,1.39,0,0,1,670.34,1574.3Zm.71,1.21h.19c.14,0,.27.13.39.38l.23.52h.36l-.29-.58a.69.69,0,0,0-.36-.4.74.74,0,0,0,.4-.21.53.53,0,0,0,.13-.39.47.47,0,0,0-.17-.4,1,1,0,0,0-.62-.17h-.61v2.15H671v-.9Zm0-1h.27a.73.73,0,0,1,.4.09.32.32,0,0,1,.09.27c0,.25-.15.37-.44.37H671v-.73Zm-49.22.8c0-.74,0-1.3,0-1.63h0a4.83,4.83,0,0,0,.25.87l2.86,6.39h.48l2.86-6.45a5.83,5.83,0,0,0,.25-.81h0c-.06.64-.08,1.2-.08,1.64V1581h1v-8.38H628.2l-2.63,5.83c-.09.23-.23.57-.4,1h0a6.87,6.87,0,0,0-.38-1l-2.57-5.89h-1.31v8.38h1v-5.62Zm9.75,0h.84v5.22h-.84Zm.42-1.91a.57.57,0,0,0,.44-.18.58.58,0,0,0,.19-.44.53.53,0,0,0-.19-.44.6.6,0,0,0-.44-.18.59.59,0,0,0-.44.18.61.61,0,0,0-.2.44.51.51,0,0,0,.2.44.62.62,0,0,0,.44.18Zm6.45,7.25v-.92a2.48,2.48,0,0,1-1.48.51,1.94,1.94,0,0,1-1.48-.61,2.4,2.4,0,0,1-.55-1.65,2.49,2.49,0,0,1,.59-1.75,1.93,1.93,0,0,1,1.5-.63,2.52,2.52,0,0,1,1.42.46v-1a3,3,0,0,0-1.38-.3,3,3,0,0,0-2.27.9,3.33,3.33,0,0,0-.84,2.37,3.1,3.1,0,0,0,.76,2.16,2.74,2.74,0,0,0,2.08.86,3.42,3.42,0,0,0,1.65-.42Zm2.42-2.79a2.7,2.7,0,0,1,.44-1.63,1.19,1.19,0,0,1,1-.51,1.1,1.1,0,0,1,.73.19v-1a1.44,1.44,0,0,0-.57-.08,1.51,1.51,0,0,0-.93.33,2.06,2.06,0,0,0-.64,1h0V1575h-1v6h1v-3.07Zm5.5,3.19a2.85,2.85,0,0,0,2.17-.86,3.77,3.77,0,0,0,.06-4.59,2.64,2.64,0,0,0-2.09-.82,3,3,0,0,0-2.17.78,3.27,3.27,0,0,0-.88,2.42,3.13,3.13,0,0,0,.77,2.21,2.78,2.78,0,0,0,2.14.86ZM645,1576.2a1.86,1.86,0,0,1,1.44-.58,1.78,1.78,0,0,1,1.42.58,2.55,2.55,0,0,1,.52,1.74,2.6,2.6,0,0,1-.48,1.69,1.74,1.74,0,0,1-1.44.62,1.87,1.87,0,0,1-1.46-.62,2.43,2.43,0,0,1-.54-1.69,2.34,2.34,0,0,1,.54-1.74Zm8.54,4.35a1.57,1.57,0,0,0,.56-1.23,1.52,1.52,0,0,0-.44-1.09,3.51,3.51,0,0,0-1.12-.65,3.45,3.45,0,0,1-.9-.5.8.8,0,0,1-.25-.62.71.71,0,0,1,.29-.59,1.2,1.2,0,0,1,.77-.23,2.25,2.25,0,0,1,1.36.43v-1a2.75,2.75,0,0,0-1.29-.29,2.3,2.3,0,0,0-1.52.5,1.53,1.53,0,0,0-.59,1.24,1.55,1.55,0,0,0,.38,1.08,3.14,3.14,0,0,0,1.08.67,4.31,4.31,0,0,1,1,.55.75.75,0,0,1,.24.58c0,.56-.38.84-1.13.84a2.38,2.38,0,0,1-1.55-.57v1a2.84,2.84,0,0,0,1.47.36,2.59,2.59,0,0,0,1.65-.56Zm4.57-5.75a3,3,0,0,0-2.17.78,3.31,3.31,0,0,0-.88,2.42,3.17,3.17,0,0,0,.76,2.21,2.82,2.82,0,0,0,2.15.86,2.79,2.79,0,0,0,2.17-.87,3.21,3.21,0,0,0,.81-2.3,3.26,3.26,0,0,0-.75-2.28,2.7,2.7,0,0,0-2.09-.83Zm1.86,3.14a2.6,2.6,0,0,1-.48,1.69,1.74,1.74,0,0,1-1.44.62,1.87,1.87,0,0,1-1.46-.62,2.94,2.94,0,0,1,0-3.45,1.86,1.86,0,0,1,1.44-.58,1.78,1.78,0,0,1,1.41.58,2.88,2.88,0,0,1,.48,1.76Zm2.59,3h1v-5.18h1.4V1575h-1.4V1574c0-.84.32-1.27,1-1.27a1.27,1.27,0,0,1,.62.16v-.87a1.7,1.7,0,0,0-.69-.09,1.76,1.76,0,0,0-1.28.48,2,2,0,0,0-.62,1.55v1h-1v.81h1v5.16Zm3.93-1.64c0,1.18.52,1.77,1.57,1.77a1.71,1.71,0,0,0,.91-.2v-.82a1,1,0,0,1-.62.19.81.81,0,0,1-.69-.25,1.44,1.44,0,0,1-.21-.86v-3.38H669v-.8h-1.52v-1.77c-.33.12-.65.21-1,.31V1575h-1v.8h1v3.55Zm103,11a1.64,1.64,0,0,0-1.19-.46,1.64,1.64,0,0,0-1.69,1.67,1.55,1.55,0,0,0,.48,1.19,1.7,1.7,0,0,0,1.21.46,1.68,1.68,0,0,0,1.21-.48,1.63,1.63,0,0,0,.49-1.19,1.66,1.66,0,0,0-.52-1.19Zm-.16,2.26a1.39,1.39,0,0,1-1.05.42,1.42,1.42,0,0,1-1.06-.42,1.46,1.46,0,0,1-.44-1.07,1.51,1.51,0,0,1,2.55-1.06,1.44,1.44,0,0,1,.44,1.06A1.36,1.36,0,0,1,769.33,1592.6Zm-.86-1a.78.78,0,0,0,.4-.22.6.6,0,0,0,0-.79.94.94,0,0,0-.61-.17h-.61v2.15h.3v-.9h.19c.14,0,.27.13.39.38l.23.52h.36l-.28-.58a.63.63,0,0,0-.33-.4Zm-.21-.2h-.33v-.72h.27a.67.67,0,0,1,.4.09c.08.06.1.13.1.27s-.16.36-.44.36Zm-53.54-16.73H715v-2.15h.71v-.27H714v.27h.71v2.15Zm1.63-1.61a3,3,0,0,0,0-.48,1.48,1.48,0,0,0,.08.25l.82,1.84h.14l.82-1.86c0-.06,0-.13.08-.23a4.12,4.12,0,0,0,0,.46v1.63h.29v-2.42h-.35l-.74,1.67c0,.06-.08.18-.12.31h0a3.05,3.05,0,0,0-.11-.29l-.75-1.69h-.39v2.42h.27v-1.61Z"/></g><g id="git"><path class="cls-2" d="M752.17,658.32l-65.49-65.49a9.66,9.66,0,0,0-13.66,0l-13.6,13.6,17.25,17.25a11.48,11.48,0,0,1,14.53,14.63l16.62,16.62a11.49,11.49,0,1,1-6.88,6.48l-15.51-15.5v40.8a11.49,11.49,0,1,1-13.21,2.18,11.38,11.38,0,0,1,3.76-2.51V645.19a11.2,11.2,0,0,1-3.76-2.5,11.49,11.49,0,0,1-2.48-12.57l-17-17L607.83,658a9.64,9.64,0,0,0,0,13.66l65.49,65.49a9.66,9.66,0,0,0,13.66,0L752.17,672a9.67,9.67,0,0,0,0-13.67"/></g><g id="animate"><path class="cls-2" d="M484,740H334V590H484Zm-142.75-7.25h135.5V597.25H341.25Z"/><path class="cls-2" d="M339.51,595.51h139v139h-139Z"/><path class="cls-2" d="M465.88,701.16V657.54c0-13.19-20.14-22-45.36-11.74v55.36h14.93V653.48c7.83-2.61,17-1.45,17,5.22v42.46ZM391,620.44H374.72l-22.31,79.85,12.46.73L371,678.55h23.91L400.81,701h14.35Zm-16.82,45.5,8.41-33.48,8.84,33.48Z"/></g><g id="selinium"><path class="cls-2" d="M614.34,1075.32v44.77s5.29,23.65,21.86,24.11,78.5,3,84.1,2.73,20.35-8,20.35-22.92v-44.3c0-8.59-5-25.32-24-26.22s-72.32-2.25-78.34-2.25c-9.85,0-24,3.73-24,24.08Z"/><path class="cls-2" d="M722.72,1183.15l-90-2.56c-10.9-.47-23.46-13.43-23.3-24.24l.43-90.41c.16-10.85,12.48-21.12,23.34-21L722,1048.2c10.81.16,23.23,10.16,23.07,21v92.31c0,11.79-9.38,21.67-22.33,21.67Z"/><path class="cls-2" d="M617.18,1149.27l14.32-3.46c.58,1.71,2.88,6,4.9,7.66s7.7,2.64,11.47,2.29a6.61,6.61,0,0,0,5.84-6.11,5.2,5.2,0,0,0-3.23-5.25,50.57,50.57,0,0,0-8.21-2.83c-3.5-1-9.76-2.42-14.7-5.76s-6.11-11-6.15-13.73a19.85,19.85,0,0,1,2.37-9.65c1.76-3,7.47-9.34,18.83-9.34s16.11,3.62,18.71,5.72,6.77,9.61,6.77,9.61l-13.07,4.7c-2.22-6.49-6.34-8.71-12-8.71s-7,3.58-7,5.71,1.25,4.71,6.61,6.11,14.24,3.62,18.48,6.34a18.32,18.32,0,0,1,8.13,14.94,17.33,17.33,0,0,1-4.78,12.61c-2.22,2.41-7.59,8-19,8-11,0-22.12-4.9-28.31-18.86Zm99.47-1.64s2.14-26.6-22.72-26.6c-22.48,0-21.63,23.07-21.63,24.66,0,6.65,3.89,23.72,22.88,23.72s21.47-16,21.47-16l-13-1.51c-.62,1.63-1.9,7.5-8,7.5a8.64,8.64,0,0,1-8.48-6.49,25.53,25.53,0,0,1-.35-5.33Zm-29.87-7.7s-.35-10.08,8.36-10.08,8.13,10.08,8.13,10.08Z"/><path class="cls-2" d="M671.84,1082.09l26.1,32.87,61.5-51.2-8.48-17-51.08,43.48-18.2-20.57Z"/><path class="cls-2" d="M673.28,1081.73l25.48,23.11L740.5,1072l-4.82-11-35.91,30.57-18.09-20.38Z"/></g><g id="less"><path id="a" class="cls-3" d="M1296.76,679a12.5,12.5,0,0,1-12.61,12.32h-106A12.51,12.51,0,0,1,1165.5,679V639.81a12.51,12.51,0,0,1,12.62-12.32h106a12.51,12.51,0,0,1,12.61,12.32V679"/><path class="cls-2" d="M1156,627.34h150V691.5H1156"/><g class="cls-15"><path class="cls-3" d="M1299.6,650.74c0-4.8.74-7.64.74-12.81,0-8-3-10.59-9.49-10.59h-4.8V633h1.48c3.32,0,4.06,1.11,4.06,5.18,0,3.82-.37,7.63-.37,12.07,0,5.66,1.85,7.88,5.54,8.74v.37c-3.69.86-5.54,3.08-5.54,8.74,0,4.44.37,8,.37,12.07s-.86,5.3-4.06,5.3v.12h-1.48v5.91h4.8c6.53,0,9.49-2.58,9.49-10.59,0-5.29-.74-8-.74-12.81,0-2.58,1.6-5.29,6.4-5.54v-6.4c-4.8-.13-6.4-2.83-6.4-5.42M1245,658.25c-3.82-1.48-7.27-2.34-7.27-4.8,0-1.85,1.48-3,4.19-3s5.17,1.11,7.88,3.08l4.93-6.53a20.94,20.94,0,0,0-12.93-4.8c-8.38,0-14,4.8-14,11.58,0,6,5.29,9.11,9.73,10.84,3.81,1.47,7.51,2.7,7.51,5.17,0,1.85-1.48,3.08-4.8,3.08-3.08,0-6.16-1.23-9.49-3.82l-4.8,7.14a23.71,23.71,0,0,0,14,5.17c9.85,0,15.15-5.17,15.15-11.94s-5.3-9.61-10.1-11.21m29.8,0c-3.69-1.48-7.14-2.34-7.14-4.8,0-1.85,1.48-3,4.19-3s5.17,1.11,7.88,3.08l4.92-6.53a20.89,20.89,0,0,0-12.93-4.8c-8.37,0-14,4.8-14,11.58,0,6,5.3,9.11,9.73,10.84,3.82,1.47,7.52,2.7,7.52,5.17,0,1.85-1.48,3.08-4.81,3.08-3.08,0-6.16-1.23-9.48-3.82l-4.93,7.14a23.71,23.71,0,0,0,14,5.17c9.86,0,15.15-5.17,15.15-11.94s-5.29-9.61-10.1-11.21m-73.15-.61c.74-4.93,3.69-7.27,7.14-7.27,4.44,0,6.16,3.08,6.16,7.27Zm22.66,2.21c.12-10-5.3-17.73-15.64-17.73-9,0-17.61,7.51-17.37,19.33,0,12.2,8,19.34,18.6,19.34a24.53,24.53,0,0,0,13.18-4.19l-3.7-6.53a15.25,15.25,0,0,1-8,2.34c-4.93,0-8.75-2.34-9.73-8H1224a32.29,32.29,0,0,0,.37-4.56Z"/></g><g class="cls-16"><path class="cls-3" d="M1190.73,672.17c-.86,0-2-.74-2-3.08V627.34h-17.49c-6.65,0-9.61,2.59-9.61,10.59,0,5.3.74,8.25.74,12.81,0,2.59-1.6,5.29-6.4,5.54v6.41c4.8.12,6.4,2.83,6.4,5.41,0,4.56-.74,7.27-.74,12.57,0,8,3,10.59,9.49,10.59h4.8v-5.67h-1.48c-3.08,0-4.06-1.23-4.06-5.29s.37-7.52.37-12.07c0-5.67-1.85-7.89-5.54-8.75v-.37c3.69-.86,5.54-3.08,5.54-8.74,0-4.43-.37-8-.37-12.07s.86-5.17,4.06-5.17h3.33v35.34c0,7.52,2.58,12.44,10.1,12.44a16.4,16.4,0,0,0,5.54-.86l-1.23-8a7.32,7.32,0,0,1-1.48.13"/></g></g><g id="npm"><path class="cls-2" d="M885,642.2v50.1h41.7v8.4H960v-8.4h75V642.2Z"/><path class="cls-2" d="M909.9,650.6H893.4v33.3h16.5V659h8.4v24.9h8.4V650.6Zm25.2,0v41.7h16.79v-8.4H968.4V650.6ZM960,675.51h-8.11V659H960Zm33.3-24.91H976.8v33.3h16.5V659h8.4v24.9h8.4V659h8.39v24.9h8.4V650.6Z"/></g><g id="photoshop"><path class="cls-2" d="M346.25,1268.13h137.5v133.75H346.25Z"/><path class="cls-2" d="M346.25,1268.13h137.5v133.75H346.25Zm-6.25,140H490V1261.88H340Zm101.13-86.25c-4.94,0-6.63,2.5-6.63,4.56,0,2.25,1.13,3.81,7.75,7.25,9.81,4.75,12.88,9.31,12.88,16,0,10-7.63,15.37-17.94,15.37-5.44,0-10.13-1.12-12.81-2.68-.44-.19-.5-.5-.5-1v-9.19c0-.63.31-.81.75-.5a23.19,23.19,0,0,0,12.56,3.69c4.94,0,7-2.07,7-4.88,0-2.25-1.44-4.25-7.75-7.5-8.88-4.25-12.56-8.56-12.56-15.75,0-8.06,6.31-14.75,17.25-14.75,5.37,0,9.12.81,11.18,1.75a1.38,1.38,0,0,1,.63,1.25v8.56c0,.5-.31.82-.94.63a21.1,21.1,0,0,0-10.87-2.81Zm-53.75,7.43c1.43.13,2.56.13,5.06.13,7.31,0,14.19-2.56,14.19-12.5,0-7.94-4.94-11.94-13.25-11.94-2.5,0-4.88.13-6,.19Zm-11.13-33.18c0-.44.88-.75,1.38-.75,4-.19,9.93-.32,16.12-.32,17.31,0,24.06,9.5,24.06,21.63,0,15.87-11.5,22.69-25.62,22.69-2.38,0-3.19-.13-4.88-.13v24c0,.5-.18.75-.75.75H377c-.5,0-.75-.19-.75-.75v-67.12Z"/></g><g id="python"><path class="cls-2" d="M1496.74,360.47c-38.08,0-35.7,16.52-35.7,16.52l0,17.11h36.34v5.13h-50.77s-24.37-2.76-24.37,35.66S1443.55,472,1443.55,472h12.69V454.12s-.68-21.27,20.93-21.27h36s20.25.33,20.25-19.57v-32.9S1536.54,360.47,1496.74,360.47Zm-20,11.51a6.53,6.53,0,0,1,6.54,6.52v0a6.53,6.53,0,0,1-6.52,6.53h0a6.52,6.52,0,0,1-6.53-6.52h0a6.52,6.52,0,0,1,6.52-6.54Z"/><path class="cls-2" d="M1497.82,509.69c38.08,0,35.7-16.51,35.7-16.51l0-17.11h-36.34v-5.13h50.77s24.37,2.76,24.37-35.66S1551,398.22,1551,398.22h-12.69v17.83s.68,21.26-20.93,21.26h-36s-20.25-.32-20.25,19.58v32.89s-3.07,19.91,36.72,19.91Zm20-11.5a6.53,6.53,0,0,1-6.54-6.53h0a6.53,6.53,0,0,1,6.53-6.53h0a6.53,6.53,0,0,1,6.54,6.52h0a6.53,6.53,0,0,1-6.53,6.54Z"/></g><g id="adobe_xd" data-name="adobe xd"><path class="cls-2" d="M338.25,380h137.5V513.75H338.25Z"/><path class="cls-2" d="M332,373.75V520H482V373.75Zm6.25,6.25h137.5V513.75H338.25Z"/><path class="cls-2" d="M440.94,435.19a8.57,8.57,0,0,0-3.63-.63c-7.87,0-13.12,6.07-13.12,16.13,0,11.5,5.37,16.12,12.37,16.12a11.84,11.84,0,0,0,4.32-.68V435.19Zm-28,16c0-14.56,9.37-25.94,24.75-25.94a28.89,28.89,0,0,1,3.25.12V409.12a.62.62,0,0,1,.62-.62h10.07c.5,0,.62.19.62.5v57.13a44.84,44.84,0,0,0,.31,6.12c0,.44,0,.5-.37.69a37.22,37.22,0,0,1-16,3.62c-13.56,0-23.25-8.37-23.25-25.37Zm-21.31-10.13L409.13,475c.31.5.12,1-.38,1H397.88a1.24,1.24,0,0,1-1.32-.81c-4-8.25-8.06-16.81-12.25-25.69h-.12c-3.75,8.38-7.88,17.5-11.88,25.75a1.19,1.19,0,0,1-1.12.69H360.81c-.62,0-.68-.5-.37-.88l17.12-32.93L361,409.38a.56.56,0,0,1,.44-.94h10.75c.62,0,.94.12,1.12.68,3.94,8.32,7.94,16.51,11.69,24.88h.13c3.62-8.25,7.62-16.56,11.43-24.75.32-.5.5-.81,1.13-.81h10.06c.5,0,.69.37.38.94l-16.5,31.68Z"/></g><g id="css3"><path class="cls-2" d="M1422,591h150V741H1422Z"/><path class="cls-2" d="M1534.93,721.19,1497,731.4l-37.94-10.21-8.75-94.84h93.38Z"/><path class="cls-2" d="M1497,634v89.23l.08,0,30.7-8.27,7.09-81Z"/><path class="cls-2" d="M1475.47,612.42v-5.65h8.24V600.6h-14.42v17.45h14.42v-5.63Zm23-5.65h5.76V600.6h-14.42v6.17c1.93,1.93,2.94,2.85,5.73,5.64h-5.73v5.63h14.42v-5.63l-5.76-5.65Zm20.43,0h5.76V600.6h-14.42v6.17c1.93,1.93,2.94,2.85,5.73,5.64h-5.73v5.63h14.42v-5.63l-5.76-5.65Z"/><path class="cls-2" d="M1497,657.75l-27.16,11.3.9,11.2L1497,669l27.92-11.94,1.16-11.46L1497,657.75Z"/><path class="cls-2" d="M1469.81,669.05l.9,11.2L1497,669V657.75Z"/><path class="cls-2" d="M1526.05,645.63,1497,657.75V669l27.92-11.94Z"/><path class="cls-2" d="M1469.86,669.05l.9,11.2,40.28.13-.91,14.93L1496.88,699l-12.74-3.22-.77-9.27h-11.84l1.54,17.89,23.94,7.08,23.81-6.95,3.08-35.52Z"/><path class="cls-17" d="M1497,669.05h-27.16l.9,11.2,26.26.08V669.05Zm0,30-.13,0-12.74-3.22-.77-9.26h-11.84l1.54,17.88,23.94,7.08Z"/><path class="cls-2" d="M1467.37,645.63h58.68l-1.16,11.46h-56.11l-1.41-11.46Z"/><path class="cls-17" d="M1497,645.63h-29.6l1.41,11.46H1497V645.63Z"/></g><g id="html5"><path class="cls-2" d="M1551.56,835.32l-9.68,108.46-43.52,12.06L1455,943.79l-9.67-108.47Z"/><path class="cls-2" d="M1498.43,946.62l35.16-9.75,8.27-92.68h-43.43Z"/><path class="cls-2" d="M1479.61,870.8h18.82V857.49h-33.36l.32,3.57,3.27,36.66h29.77v-13.3h-17.61Zm3,33.58h-13.35l1.86,20.89,27.26,7.56.06,0V919l-.06,0-14.82-4-1-10.61Z"/><path class="cls-2" d="M1455.18,805.84h6.76v6.68h6.18v-6.68h6.77v20.23h-6.77V819.3h-6.18v6.77h-6.76V805.84Zm28.6,6.71h-6v-6.71h18.67v6.71h-6v13.52h-6.76V812.55Zm15.68-6.71h7l4.33,7.11,4.33-7.11h7.06v20.23h-6.74V816l-4.65,7.2h-.12l-4.65-7.2v10h-6.61Zm26.13,0h6.76v13.54h9.51v6.69h-16.27V805.84Z"/><path class="cls-2" d="M1498.38,897.72h16.38L1513.22,915l-14.84,4v13.84l27.27-7.55.2-2.25,3.13-35,.33-3.57h-30.93v13.3Zm0-27v0h32.14l.26-3,.61-6.75.32-3.57h-33.33v13.28Z"/></g><g id="sass"><path class="cls-2" d="M1553.45,1128.41a31,31,0,0,0-13.59,3.16c-1.41-2.78-2.81-5.21-3-7a19.66,19.66,0,0,1-.26-5.92,47.37,47.37,0,0,1,1.79-6.39c0-.26-.33-1.55-3.35-1.58s-5.62.59-5.91,1.38a32.58,32.58,0,0,0-1.26,4.48c-.53,2.76-6,12.51-9.17,17.64a17.64,17.64,0,0,1-2.08-5.16,19.27,19.27,0,0,1-.27-5.91,46.91,46.91,0,0,1,1.79-6.39c0-.27-.32-1.55-3.34-1.58s-5.63.58-5.92,1.37-.61,2.67-1.26,4.49-7.94,18.1-9.84,22.35c-1,2.17-1.82,3.9-2.44,5.07s0,.09-.08.2l-.82,1.56v0c-.41.73-.85,1.43-1.06,1.43s-.44-2,.06-4.66c1.08-5.65,3.72-14.47,3.69-14.79,0-.15.5-1.7-1.7-2.49a2.65,2.65,0,0,0-3.07.53c-.18,0-.33.46-.33.46s2.38-9.93-4.54-9.93c-4.33,0-10.31,4.72-13.27,9l-10.08,5.5c-1.61.88-3.28,1.82-4.86,2.67l-.33-.35c-8.38-8.94-23.87-15.27-23.23-27.28.23-4.36,1.76-15.88,29.77-29.83,22.94-11.42,41.31-8.29,44.5-1.31,4.55,10-9.81,28.47-33.66,31.14-9.08,1-13.86-2.49-15.06-3.81s-1.44-1.43-1.91-1.17c-.76.41-.29,1.64,0,2.37.71,1.85,3.64,5.13,8.62,6.77,4.36,1.44,15,2.23,27.92-2.75,14.45-5.6,25.73-21.13,22.42-34.11-3.37-13.21-25.29-17.55-46-10.19-12.34,4.39-25.7,11.25-35.31,20.24-11.43,10.67-13.24,20-12.48,23.85,2.66,13.8,21.68,22.8,29.3,29.45l-1.06.58c-3.81,1.88-18.31,9.47-21.94,17.5-4.11,9.08.64,15.61,3.81,16.49,9.78,2.73,19.8-2.17,25.22-10.22s4.75-18.52,2.26-23.3l-.09-.17,3-1.76c1.93-1.14,3.84-2.2,5.51-3.11a36.71,36.71,0,0,0-2,10c-.41,5.16,1.7,11.84,4.49,14.48a5,5,0,0,0,3.6,1.17c3.22,0,4.69-2.67,6.3-5.86,2-3.9,3.75-8.41,3.75-8.41s-2.2,12.22,3.81,12.22c2.2,0,4.39-2.84,5.39-4.31v0l.18-.29c.12-.18.24-.37.35-.56v-.06c.88-1.52,2.84-5,5.77-10.78,3.78-7.44,7.41-16.76,7.41-16.76a52.51,52.51,0,0,0,1.44,6,57.23,57.23,0,0,0,3.13,7c-.88,1.23-1.4,1.93-1.4,1.93l0,0c-.71.94-1.5,1.94-2.32,2.93-3,3.58-6.56,7.65-7,8.82-.56,1.38-.44,2.4.64,3.23a5.92,5.92,0,0,0,3.7.58,16.23,16.23,0,0,0,5.5-1.26,19.13,19.13,0,0,0,4.75-2.49,10.56,10.56,0,0,0,4.54-9.35,18.83,18.83,0,0,0-1.73-6.59c.27-.38.53-.76.8-1.17a125.1,125.1,0,0,0,8.2-14.21,53.5,53.5,0,0,0,1.43,6,42.45,42.45,0,0,0,2.67,6c-4.34,3.55-7.06,7.65-8,10.34-1.73,5-.38,7.24,2.17,7.77a7.81,7.81,0,0,0,4-.82,18.16,18.16,0,0,0,5.07-2.61c2.93-2.17,5.75-5.19,5.6-9.26a18,18,0,0,0-1.26-5.48,28.61,28.61,0,0,1,14.53-1.67c13,1.53,15.62,9.67,15.12,13.07a8.76,8.76,0,0,1-4.13,5.86c-.91.56-1.2.76-1.11,1.17.11.62.52.59,1.31.47,1.09-.17,6.86-2.78,7.09-9,.36-8.06-7.29-16.85-20.86-16.76Zm-100.55,33.9c-4.31,4.71-10.37,6.5-13,5-2.79-1.61-1.7-8.56,3.6-13.57a69.11,69.11,0,0,1,10.17-7.59c.61-.38,1.55-.93,2.66-1.61l.3-.17.67-.41a18.7,18.7,0,0,1-4.45,18.37Zm31.49-21.42c-1.49,3.66-4.65,13.07-6.56,12.54-1.64-.44-2.64-7.56-.32-14.59a32.36,32.36,0,0,1,5.13-9.41c2.37-2.63,4.95-3.51,5.59-2.43C1489,1128.41,1485.33,1138.6,1484.39,1140.89Zm26,12.42c-.64.32-1.23.56-1.49.38s.26-.55.26-.55,3.25-3.49,4.54-5.1c.74-.94,1.62-2,2.55-3.25v.35c0,4.22-4,7-5.86,8.17Zm20-4.57c-.46-.35-.41-1.43,1.18-4.83a18,18,0,0,1,4.45-5.75,7.32,7.32,0,0,1,.44,2.52C1536.46,1146,1532.71,1147.92,1530.42,1148.74Z"/></g><g id="ubuntu"><path class="cls-2" d="M1579.55,1307.89a75,75,0,1,1-75-75A75,75,0,0,1,1579.55,1307.89Z"/><path class="cls-2" d="M1453.55,1297.88a10,10,0,1,0,10,10,10,10,0,0,0-10-10Zm71.49,45.51a10,10,0,1,0,13.68,3.66A10,10,0,0,0,1525,1343.39Zm-49.74-35.5a29.2,29.2,0,0,1,12.43-23.93l-7.32-12.26a43.52,43.52,0,0,0-18,25.28,14.07,14.07,0,0,1,0,21.81,43.51,43.51,0,0,0,18,25.29l7.32-12.26a29.19,29.19,0,0,1-12.43-23.93Zm29.25-29.25a29.25,29.25,0,0,1,29.13,26.66l14.27-.21a43.39,43.39,0,0,0-12.93-28.22,14.05,14.05,0,0,1-18.85-10.9,43.54,43.54,0,0,0-30.9,2.92l7,12.47a29.24,29.24,0,0,1,12.32-2.72Zm0,58.5a29.24,29.24,0,0,1-12.32-2.72l-7,12.47a43.54,43.54,0,0,0,30.9,2.92,14.05,14.05,0,0,1,18.85-10.9,43.42,43.42,0,0,0,12.93-28.22l-14.28-.21a29.23,29.23,0,0,1-29.12,26.66Zm20.49-64.75a10,10,0,1,0-3.67-13.67,10,10,0,0,0,3.67,13.67Z"/></g><g id="jira"><path class="cls-2" d="M1018,1083.18a1,1,0,0,0-1-.73h-9.84a1,1,0,0,0-1,.73l-12.41,39.35a1.07,1.07,0,0,0,.69,1.32,1.13,1.13,0,0,0,.32.05h6.77a1.06,1.06,0,0,0,1-.76l8.54-28.93a1.06,1.06,0,0,1,1-.73,1,1,0,0,1,1,.75l4,13.73h-5.45a1.05,1.05,0,0,0-1,.76l-1.53,5.44a1.05,1.05,0,0,0,.18.92,1.07,1.07,0,0,0,.84.42h9.19l2.38,7.66a1.06,1.06,0,0,0,1,.74h6.77a1.05,1.05,0,0,0,1-1.06,1.1,1.1,0,0,0,0-.31L1018,1083.18"/><path class="cls-2" d="M971.76,1090.11H980c4.23,0,5.08,1.66,5.08,4.35v4c0,3.35-1.28,4.48-5.08,4.48h-8.2Zm25,32.05-9-13c3.87-1.61,5.84-5,5.84-10v-5.3c0-7.89-4.12-11.4-13.36-11.4h-16a1,1,0,0,0-1,1v39.34a1.05,1.05,0,0,0,1,1.06h6.47a1.05,1.05,0,0,0,1-1.06V1110.5h6.62l9,12.94a1.05,1.05,0,0,0,.87.46H996a1.06,1.06,0,0,0,.8-1.74Zm-41.45-39.71h-6.46a1.05,1.05,0,0,0-1.06,1v39.34a1.05,1.05,0,0,0,1.06,1.06h6.46a1.06,1.06,0,0,0,1.06-1.06V1083.5a1.05,1.05,0,0,0-1.06-1h0m-15.14,0h-6.55a1,1,0,0,0-1,1v30.79a5,5,0,0,1-4.95,5.24,1,1,0,0,0-.88,1.29l1.59,5.18c.13.42.59.7,1.33.7a11.38,11.38,0,0,0,11.46-11.51v-31.69a1,1,0,0,0-1-1h0"/><path class="cls-2" d="M889.5,1071.71a3.65,3.65,0,1,0,3.64,3.64,3.64,3.64,0,0,0-3.64-3.64m23.91,0a3.65,3.65,0,1,0,3.64,3.64,3.64,3.64,0,0,0-3.64-3.64m-11.95-3.32a3.64,3.64,0,1,0,3.64,3.64,3.63,3.63,0,0,0-3.64-3.64M922,1081.86a1.12,1.12,0,0,0-.69-.23,1.09,1.09,0,0,0-.4.07,54.77,54.77,0,0,1-7.26,2.19,1.43,1.43,0,0,0-1,.87c-1.67,4.56-5.92,8.9-10.37,13.45a1.1,1.1,0,0,1-1.68,0c-4.46-4.55-8.71-8.87-10.37-13.43a1.42,1.42,0,0,0-1-.87,56.39,56.39,0,0,1-7.25-2.21,1.13,1.13,0,0,0-1.1.15,1.13,1.13,0,0,0-.44,1,23.93,23.93,0,0,0,4.58,11.38,83.32,83.32,0,0,0,9.06,10.3c5.9,6,11.48,11.7,12,18.3a1.14,1.14,0,0,0,1.13,1.06h6.94a1.15,1.15,0,0,0,1.14-1.15v0c-.22-4.41-1.88-8.83-5.07-13.5-.67-1-1.39-1.93-2.14-2.86a.81.81,0,0,1,.06-1.09l.69-.71a84.15,84.15,0,0,0,9.06-10.3,24,24,0,0,0,4.58-11.36,1.2,1.2,0,0,0-.45-1m-28,27.81a1,1,0,0,0-.81-.35,1.17,1.17,0,0,0-.94.53c-2.91,4.44-4.42,8.63-4.63,12.84a1.16,1.16,0,0,0,1.15,1.21h6.92a1.16,1.16,0,0,0,1.14-1.06,15.42,15.42,0,0,1,1.93-6.21,1.6,1.6,0,0,0-.14-1.73,64.6,64.6,0,0,0-4.62-5.23"/><path class="cls-2" d="M901.46,1085.26c2.18,0,3.44-.13,3.88-.13a1.06,1.06,0,0,1,1,1,1.27,1.27,0,0,1-.08.43,18.6,18.6,0,0,1-4,5.92,1.15,1.15,0,0,1-.8.31h0a1.12,1.12,0,0,1-.8-.31,18.32,18.32,0,0,1-4-5.93,1.14,1.14,0,0,1-.09-.42,1.06,1.06,0,0,1,1.05-1c.45,0,1.71.13,3.88.13h0"/></g><g id="lense"><path class="cls-14" d="M976.57,1548.45c1,0,1.93,0,2.91,0v18.09c-1,0-2,0-2.91,0Q976.59,1557.48,976.57,1548.45Zm19.22,1h3c0,4.85,0,9.7,0,14.55,2.22.07,4.43,0,6.65,0,0,.84,0,1.67,0,2.52h-9.63c0-5.71,0-11.41,0-17.12ZM968,1554a6.45,6.45,0,0,1,4.91,1.37,6.3,6.3,0,0,1,1.94,4.91,6.52,6.52,0,0,1-1.84,4.9,6.34,6.34,0,0,1-4.67,1.64,6,6,0,0,1-4.64-1.91,6.91,6.91,0,0,1-1.4-5.44,6.09,6.09,0,0,1,2.25-4.26A6.26,6.26,0,0,1,968,1554m-.2,2.48a3,3,0,0,0-2.25,2,6.76,6.76,0,0,0-.1,3.57,3,3,0,0,0,2.06,2.18,3.48,3.48,0,0,0,3.33-.67,4.53,4.53,0,0,0,1-3.2,4.34,4.34,0,0,0-1-3.17,3.39,3.39,0,0,0-3-.75Zm19.09-2.48a6.53,6.53,0,0,1,4.93,1.32,6.35,6.35,0,0,1,2,5,6.58,6.58,0,0,1-1.87,4.94,6.48,6.48,0,0,1-4.72,1.6,6,6,0,0,1-4.54-1.88,6.82,6.82,0,0,1-1.45-5.23,6.25,6.25,0,0,1,2.24-4.47,6.36,6.36,0,0,1,3.43-1.24m-.1,2.48a3,3,0,0,0-2.33,2.16,6.59,6.59,0,0,0,0,3.63,2.92,2.92,0,0,0,2,2,3.44,3.44,0,0,0,3.24-.65,4.35,4.35,0,0,0,1-3.11,4.49,4.49,0,0,0-1-3.26,3.35,3.35,0,0,0-3-.78Zm36.18-1.6a5.23,5.23,0,0,1,4-.8,3.42,3.42,0,0,1,2.43,1.76,8.08,8.08,0,0,1,.66,4c0,2.24,0,4.47,0,6.71h-2.88c0-1.84,0-3.69,0-5.53,0-1.25.14-2.58-.49-3.71a2.36,2.36,0,0,0-2.77-.79,3.11,3.11,0,0,0-1.91,3c0,2.33,0,4.68,0,7a28.21,28.21,0,0,1-2.91,0q0-6.12,0-12.25H1022c0,.51,0,1,0,1.56.37-.28.61-.7,1-.95Zm11.22-.38a7.09,7.09,0,0,1,5.41-.06c0,.93,0,1.86,0,2.77a5.09,5.09,0,0,0-3.27-.9,1.48,1.48,0,0,0-1.22.74,1.27,1.27,0,0,0,.47,1.52c.79.52,1.72.76,2.55,1.21a4.16,4.16,0,0,1,1.7,1.46,3.72,3.72,0,0,1,.21,3.11,4,4,0,0,1-2.72,2.23,8.42,8.42,0,0,1-4.64-.18,1.91,1.91,0,0,1-.58-.26c0-.93,0-1.87,0-2.81a5.93,5.93,0,0,0,3.76,1.16,1.81,1.81,0,0,0,1.2-.42,1.26,1.26,0,0,0-.15-1.68,5.94,5.94,0,0,0-1.58-.88,6.64,6.64,0,0,1-2.48-1.5,3.54,3.54,0,0,1-.7-3.06,3.63,3.63,0,0,1,2-2.45Zm-25.25.29a6.16,6.16,0,0,1,4.53-.63,4.6,4.6,0,0,1,3.16,2.5,9.07,9.07,0,0,1,.65,4.61c-2.79,0-5.57,0-8.36,0a3.46,3.46,0,0,0,1,2.45,4.06,4.06,0,0,0,2.83.86,6.5,6.5,0,0,0,3.52-1.12c0,.79,0,1.58,0,2.36a8.39,8.39,0,0,1-4.56,1,5.52,5.52,0,0,1-4.31-1.86,7.2,7.2,0,0,1-1.32-5.5,6.32,6.32,0,0,1,2.84-4.67m1.37,2a3.64,3.64,0,0,0-1.32,2.37h5.45a2.89,2.89,0,0,0-1-2.46,2.74,2.74,0,0,0-3.14.09Zm22.86-32.47a6.23,6.23,0,0,1,2.88.07c0,.83,0,1.66,0,2.5a3.09,3.09,0,0,0-1.84-.25,1.59,1.59,0,0,0-1.23,1.13,9.58,9.58,0,0,0-.15,2.52c1.44,0,2.87,0,4.31,0,0-.93,0-1.86,0-2.78,1-.25,1.92-.6,2.9-.85q0,1.81,0,3.63c1,0,2,0,2.93,0,0,.77,0,1.56,0,2.33-1,.07-1.92,0-2.89,0l0,.06c0,1.88,0,3.76,0,5.65a2.06,2.06,0,0,0,.65,1.81,2.23,2.23,0,0,0,2.28-.15c0,.81,0,1.62,0,2.42a6.05,6.05,0,0,1-3.37.28,2.94,2.94,0,0,1-2-1.55,7.39,7.39,0,0,1-.43-3.4c0-1.71,0-3.42,0-5.13-1.43,0-2.86,0-4.29,0,0,3.15,0,6.31,0,9.46,0,.15,0,.29,0,.43h-2.91c0-3.3,0-6.61,0-9.9h-2c0-.79,0-1.59,0-2.37h2a11.58,11.58,0,0,1,.23-3.17A4.16,4.16,0,0,1,1033.17,1524.3Zm-64.58.85a1.78,1.78,0,0,1,2.39,1.39,1.77,1.77,0,1,1-2.39-1.39Z"/><path class="cls-14" d="M893,1526.06c0-.2,0-.41,0-.62h19.52V1545c-6.5,0-13,0-19.52,0,0-6.31,0-12.62,0-18.92Z"/><path class="cls-14" d="M914.56,1525.48a2,2,0,0,1,.43,0H934.1V1545c-6.5,0-13,0-19.52,0,0-6.5,0-13,0-19.5Z"/><path class="cls-14" d="M946.43,1525.45c1.43,0,2.86,0,4.29,0,1.6,4.23,3.28,8.45,4.9,12.68.56-1.17,1-2.4,1.5-3.58,1.24-3,2.5-6.08,3.73-9.12,1.36,0,2.73,0,4.1,0,0,3.64,0,7.29,0,10.93,0,2.07,0,4.13,0,6.18-1,0-1.94,0-2.9,0l-.06-.06q0-6.63,0-13.27a.76.76,0,0,0-.16.25q-2.53,6.39-5,12.78c-.07.1-.09.34-.26.3h-1.85c-1.79-4.37-3.56-8.76-5.33-13.13l-.14-.06v13.18c-.91,0-1.83,0-2.74,0,0-5.7,0-11.4,0-17.1Zm29.93,5a7.44,7.44,0,0,1,5.8.16c0,.93.05,1.86,0,2.78a5.82,5.82,0,0,0-2-.92,3.68,3.68,0,0,0-4.57,3.53,4.32,4.32,0,0,0,.91,3.31,3.79,3.79,0,0,0,3.16,1.09,6,6,0,0,0,2.49-1.06c0,.92,0,1.82,0,2.72a7.83,7.83,0,0,1-5,.61,5.68,5.68,0,0,1-4.09-3.4,7.81,7.81,0,0,1-.27-4.44A6,6,0,0,1,976.36,1530.47Zm32-.2a7.6,7.6,0,0,1,4.76.18c0,.92,0,1.84,0,2.77a5.47,5.47,0,0,0-2.93-.91,1.82,1.82,0,0,0-1.47.59,1.26,1.26,0,0,0,.44,1.74c1.13.68,2.49.95,3.51,1.84a3.48,3.48,0,0,1,.16,5,4.86,4.86,0,0,1-2.92,1.32,9,9,0,0,1-4.28-.57c-.06-1,0-1.89,0-2.84a5.63,5.63,0,0,0,4.48,1,1,1,0,0,0,.71-1.31c-.15-.69-.84-1-1.43-1.3a8.9,8.9,0,0,1-3-1.7,3.5,3.5,0,0,1-.73-3.13,3.82,3.82,0,0,1,2.65-2.67Zm-19.83.34a3.42,3.42,0,0,1,3-.36c0,1,0,1.92,0,2.88a3.56,3.56,0,0,0-2-.4,2.49,2.49,0,0,0-1.94,1.71,11.07,11.07,0,0,0-.28,3.45c0,1.56,0,3.12,0,4.66-1,0-1.91,0-2.87,0,0-4.08,0-8.16,0-12.24h2.88c0,.63,0,1.26,0,1.9A4.12,4.12,0,0,1,988.5,1530.61Zm8.34-.53a6.75,6.75,0,0,1,5.45,1.3,6.4,6.4,0,0,1,1.94,5,6.46,6.46,0,0,1-2,5,6.91,6.91,0,0,1-5.65,1.43,5.59,5.59,0,0,1-4-2.41,7.43,7.43,0,0,1-.89-5.17,5.94,5.94,0,0,1,2.46-4.13,6.16,6.16,0,0,1,2.65-1m.15,2.47a2.91,2.91,0,0,0-1.78,1.4,5.53,5.53,0,0,0-.55,3.08,3.85,3.85,0,0,0,1.1,2.65,3.52,3.52,0,0,0,2.94.7,2.76,2.76,0,0,0,1.92-1.27,5.74,5.74,0,0,0,.58-3.19,3.94,3.94,0,0,0-1.08-2.72,3.39,3.39,0,0,0-3.13-.65Zm23.18-2.47a7.22,7.22,0,0,1,5,.92,5.85,5.85,0,0,1,2.33,4.07,7.36,7.36,0,0,1-1.23,5.55,5.86,5.86,0,0,1-4,2.17,6.94,6.94,0,0,1-5.2-1.23,5.8,5.8,0,0,1-2.07-4.13,7.35,7.35,0,0,1,1.36-5.3,5.81,5.81,0,0,1,3.79-2.05m.15,2.48a2.77,2.77,0,0,0-1.53,1.06,4.92,4.92,0,0,0-.78,3.11,4.18,4.18,0,0,0,1,2.81,3.25,3.25,0,0,0,2.6.89,2.88,2.88,0,0,0,2.25-1.1,5.37,5.37,0,0,0,.74-3.31,4.07,4.07,0,0,0-1.1-2.85,3.46,3.46,0,0,0-3.15-.61Zm-52.57-2.28c1,0,1.94,0,2.91,0,0,4.08,0,8.17,0,12.25-1,0-1.92,0-2.87,0,0-4.09,0-8.18,0-12.27Z"/><path class="cls-14" d="M893,1566.49c0-6.49,0-13,0-19.49,6.5,0,13,0,19.51,0v19.52H893.77a4,4,0,0,1-.77,0Z"/><path class="cls-14" d="M914.57,1548.44c0-.48,0-1,0-1.44,6.51,0,13,0,19.52,0v19.52H915l-.43,0c0-6,0-12,0-18.07Z"/><path class="cls-14" d="M946.44,1549.41c1,0,2-.05,3,0,0,2.35,0,4.71,0,7.07a3.34,3.34,0,0,0,.89,0h6a4.36,4.36,0,0,0,1,0c0-2.37,0-4.75,0-7.12h3c0,5.71,0,11.41,0,17.12h-3c0-2.45,0-4.9,0-7.34h-7.83c0,2.43,0,4.85,0,7.28a27.12,27.12,0,0,1-3,0c0-5.71,0-11.41,0-17.12Z"/></g><g id="json"><path class="cls-2" d="M1230.87,1566.66c33.19,45.24,65.67-12.63,65.62-47.43-.06-41.14-41.76-64.13-65.64-64.13-38.34,0-74.85,31.68-74.85,75,0,48.18,41.85,74.87,74.85,74.87-7.47-1.07-32.35-6.4-32.69-63.72-.22-38.76,12.65-54.25,32.63-47.43.45.16,22,8.68,22,36.51s-22,36.3-22,36.3Z"/><path class="cls-2" d="M1230.83,1493.81c-21.92-7.55-48.79,10.52-48.79,46.72,0,59.11,43.8,64.47,49.11,64.47,38.34,0,74.85-31.68,74.85-75,0-48.19-41.85-74.88-74.85-74.88,9.14-1.26,49.26,9.9,49.26,64.73,0,35.75-30,55.22-49.44,46.9-.45-.16-22-8.68-22-36.51s21.9-36.4,21.9-36.4Z"/></g><g id="javascript"><path class="cls-2" d="M1429,1457h150v150H1429Z"/><path class="cls-2" d="M1468.44,1582.35l11.48-6.95c2.21,3.93,4.23,7.25,9.06,7.25,4.63,0,7.55-1.81,7.55-8.86v-47.93h14.1V1574c0,14.6-8.56,21.25-21.05,21.25-11.27,0-17.82-5.84-21.14-12.89m49.85-1.51,11.47-6.64c3,4.93,7,8.55,13.9,8.55,5.84,0,9.56-2.92,9.56-6.94,0-4.84-3.82-6.55-10.27-9.37l-3.52-1.51c-10.17-4.33-16.92-9.76-16.92-21.24,0-10.58,8.06-18.63,20.65-18.63,9,0,15.4,3.12,20,11.28l-11,7c-2.42-4.32-5-6-9.06-6s-6.75,2.62-6.75,6c0,4.23,2.62,5.95,8.66,8.56l3.52,1.51c12,5.14,18.73,10.38,18.73,22.15,0,12.69-10,19.64-23.36,19.64-13.09,0-21.55-6.24-25.67-14.4"/></g><g id="marvel"><path class="cls-2" d="M430.5,1529.33l6.25-6.25c1.81-1.8,3.53-3.39,5.16-4.75s3.26-2.76,4.9-4.21a56.32,56.32,0,0,1,9-6.53,14.41,14.41,0,0,1,6.8-1.9,11.89,11.89,0,0,1,8.28,3.4,10.31,10.31,0,0,1,3.67,7.74,14.43,14.43,0,0,1-1.76,6.66,69.53,69.53,0,0,1-6.39,9.38q-21.19,27.72-21.2,35.87,0,3.52,3.54,3.53a10.64,10.64,0,0,0,6-2.31,57.35,57.35,0,0,0,8.42-8q2.72-3,6.66-8.15t6.93-9.51a29.08,29.08,0,0,1,5-6,7.39,7.39,0,0,1,4.76-1.63,6.49,6.49,0,0,1,6.52,6.52q0,5.18-4.76,13.73a110.18,110.18,0,0,1-12.36,17.52,84.53,84.53,0,0,1-19.43,17.67q-9.92,6.24-18.07,6.25a16.7,16.7,0,0,1-12.5-5,17.73,17.73,0,0,1-4.89-12.91,41.75,41.75,0,0,1,.68-7.74,52.06,52.06,0,0,1,2-7.61,55,55,0,0,1,3.8-8.43,105.15,105.15,0,0,1,6.25-9.91,24,24,0,0,1,1.36-2.18,90.35,90.35,0,0,0-14,13.73,130.11,130.11,0,0,0-14,21.33q-5.16,8.7-7.88,11.55a9,9,0,0,1-6.79,2.85,9.34,9.34,0,0,1-7.21-3.13,11,11,0,0,1-2.85-7.74,25.28,25.28,0,0,1,.68-5.84,46.45,46.45,0,0,1,2.86-7.75,80.61,80.61,0,0,1,3.53-8.29,61.48,61.48,0,0,1,3.8-6.93l5.16-9a12.34,12.34,0,0,0,1.64-2.72,97.5,97.5,0,0,0-10.6,9.92q-5.18,5.58-9.92,11.55a110.36,110.36,0,0,0-8.42,12.09A98.51,98.51,0,0,0,365,1588q-3.25,7.6-5.84,10.19a9,9,0,0,1-6.66,2.58,8.49,8.49,0,0,1-6.79-3.26,12.71,12.71,0,0,1-2.72-8.42q0-10.33,10.05-35.6a243.14,243.14,0,0,1,12.37-26.63A173,173,0,0,1,378.6,1506a37.65,37.65,0,0,1,6.52-6.92,9.72,9.72,0,0,1,6-2,8.58,8.58,0,0,1,6.11,2.44,7.93,7.93,0,0,1,2.58,6,15,15,0,0,1-1.22,5.71,81.2,81.2,0,0,1-5.84,10.32c-.83,1.4-1.64,2.8-2.45,4.21q-1.62,2.86-4.07,7.21l-3,6q8.14-9.78,14.26-16.57a135.87,135.87,0,0,1,10.74-10.87,42.86,42.86,0,0,1,8.29-6,14.76,14.76,0,0,1,6.65-1.9,9.16,9.16,0,0,1,6.53,2.58,8.49,8.49,0,0,1,2.71,6.39,15.91,15.91,0,0,1-1.09,5.43,69.94,69.94,0,0,1-4.61,9.24L421,1537.49l-2.17,4.07,3.26-3.53q4.89-5.16,8.42-8.7Z"/></g></svg>